<svg xmlns="http://www.w3.org/2000/svg" width="400" height="400"><g fill-rule="evenodd"><path d="M100.4 72.8c0 .22-.284.4-.631.4-1.017 0-5.769 5.144-5.769 6.246 0 .525-.18.954-.4.954-.265 0-.4 23.459-.4 69.576 0 45.953.136 69.661.4 69.824.22.136.4 1.126.4 2.2 0 1.074.18 2.064.4 2.2.22.136.4.946.4 1.8 0 .854.18 1.664.4 1.8.22.136.4.676.4 1.2 0 .524.18 1.064.4 1.2.22.136.4 1.047.4 2.024 0 .977.18 1.776.4 1.776.22 0 .4.54.4 1.2 0 .66.18 1.2.4 1.2.22 0 .4.272.4.605 0 .333.159.918.353 1.3.195.382.576 1.235.847 1.895.271.66.652 1.513.847 1.895.194.382.353 1.057.353 1.5 0 .443.18.805.4.805.22 0 .4.36.4.8 0 .44.18.8.4.8.22 0 .4.36.4.8 0 .44.18.8.4.8.22 0 .4.36.4.8 0 .44.18.8.4.8.22 0 .4.36.4.8 0 .44.18.8.4.8.22 0 .4.236.4.525 0 .288.36.911.8 1.383.44.472.8 1.049.8 1.281 0 .41.795 2.007 1.201 2.411.11.11.455.695.767 1.3.312.605.717 1.1.9 1.1.182 0 .332.288.332.64 0 .351.54 1.143 1.2 1.76.66.617 1.2 1.337 1.2 1.6 0 .263.54.983 1.2 1.6.66.617 1.2 1.319 1.2 1.56 0 .242.72 1.181 1.6 2.088.88.907 1.6 1.806 1.6 1.997 0 .272 4.897 5.472 9.29 9.865 4.432 4.433 9.594 9.29 9.872 9.29.196 0 1.276.9 2.399 2 1.124 1.1 2.204 2 2.4 2 .197 0 1.277.9 2.4 2 1.124 1.1 2.222 2 2.441 2 .218 0 1.139.72 2.046 1.6.907.88 1.857 1.6 2.112 1.6.255 0 .723.36 1.04.8.317.44.857.8 1.2.8.343 0 .883.36 1.2.8.317.44.825.8 1.128.8.303 0 1.055.54 1.672 1.2.617.66 1.409 1.2 1.76 1.2.352 0 .64.18.64.4 0 .22.272.4.604.4.332 0 1.168.54 1.859 1.2.691.66 1.499 1.2 1.796 1.2.298 0 .541.18.541.4 0 .22.36.4.8.4.44 0 .8.15.8.332 0 .183.495.588 1.1.9.605.313 1.449.883 1.875 1.268.427.385 1.012.7 1.3.7.289 0 .525.18.525.4 0 .22.36.4.8.4.44 0 .8.18.8.4 0 .22.236.4.525.4.288 0 .911.36 1.383.8.472.44 1.136.8 1.475.8.339 0 .617.18.617.4 0 .22.32.4.712.4.391 0 .971.36 1.288.8.317.44.897.8 1.288.8.392 0 .712.18.712.4 0 .22.36.4.8.4.44 0 .8.18.8.4 0 .22.36.4.8.4.44 0 .8.18.8.4 0 .22.278.4.617.4.339 0 1.003.36 1.475.8.472.44 1.174.8 1.56.8.385 0 .812.18.948.4.136.22.597.4 1.024.4.427 0 .776.147.776.326 0 .466 3.131 2.074 4.038 2.074.419 0 .762.18.762.4 0 .22.349.4.776.4.427 0 .888.18 1.024.4.136.22.766.4 1.4.4.634 0 1.264.18 1.4.4.321.519 2.479.519 2.8 0 .136-.22.676-.4 1.2-.4.524 0 1.064-.18 1.2-.4.136-.22.687-.4 1.224-.4.537 0 .976-.18.976-.4 0-.22.253-.4.562-.4.666 0 3.979-1.668 4.171-2.1.074-.165.524-.304 1-.309.477-.005 1.317-.361 1.867-.791.55-.43 1.225-.786 1.5-.791.275-.005.5-.189.5-.409 0-.22.36-.4.8-.4.44 0 .8-.18.8-.4 0-.22.345-.4.767-.4.421 0 .826-.135.9-.3.073-.165.988-.733 2.033-1.263 1.045-.529 1.9-1.114 1.9-1.3 0-.185.36-.337.8-.337.44 0 .8-.159.8-.353 0-.195.315-.454.7-.576.696-.22 2.918-1.484 3.3-1.876.11-.113 1.055-.637 2.1-1.163 1.045-.527 1.9-1.109 1.9-1.295 0-.185.236-.337.525-.337.288 0 .911-.36 1.383-.8.472-.44 1.136-.8 1.475-.8.339 0 .617-.18.617-.4 0-.22.243-.4.541-.4.297 0 1.105-.54 1.796-1.2.691-.66 1.527-1.2 1.859-1.2.332 0 .604-.18.604-.4 0-.22.243-.4.541-.4.297 0 1.105-.54 1.796-1.2.691-.66 1.439-1.2 1.663-1.2.224 0 .972-.54 1.663-1.2.691-.66 1.459-1.2 1.708-1.2.249 0 .712-.36 1.029-.8.317-.44.825-.8 1.128-.8.303 0 1.055-.54 1.672-1.2.617-.66 1.297-1.2 1.512-1.2.215 0 1.133-.72 2.04-1.6.907-.88 1.81-1.6 2.008-1.6.197 0 1.238-.855 2.313-1.9 1.074-1.045 2.664-2.436 3.533-3.091 2.056-1.551 19.794-19.311 19.794-19.819 0-.214.72-1.131 1.6-2.038.88-.907 1.6-1.857 1.6-2.112 0-.255.36-.723.8-1.04.44-.317.8-.762.801-.988 0-.227.54-1.042 1.199-1.812s1.199-1.625 1.199-1.9c.001-.275.181-.5.401-.5.22 0 .4-.32.4-.712 0-.391.36-.971.8-1.288.44-.317.8-.897.8-1.288 0-.392.152-.712.337-.712.186 0 .771-.855 1.3-1.9.53-1.045 1.098-1.96 1.263-2.033.165-.074.3-.479.3-.9 0-.422.18-.767.4-.767.22 0 .4-.36.4-.8 0-.44.18-.8.4-.8.22 0 .4-.234.4-.52 0-.736.941-2.673 1.3-2.677.165-.002.3-.543.3-1.203s.18-1.2.4-1.2c.22 0 .4-.36.4-.8 0-.44.18-.8.4-.8.22 0 .4-.439.4-.976 0-.537.18-1.088.4-1.224.22-.136.4-.597.4-1.024 0-.427.18-.776.4-.776.22 0 .4-.529.4-1.176 0-.647.18-1.288.4-1.424.22-.136.4-.766.4-1.4 0-.634.18-1.264.4-1.4.22-.136.4-.957.4-1.824 0-.867.18-1.576.4-1.576.22 0 .4-.619.4-1.376 0-.757.18-1.488.4-1.624.22-.136.4-1.486.4-3s.18-2.864.4-3c.264-.163.4-23.671.4-69.224 0-45.717-.135-68.976-.4-68.976-.22 0-.4-.433-.4-.962 0-1.11-4.707-6.238-5.725-6.238-.345 0-.739-.18-.875-.4-.306-.495-3.4-.535-3.4-.043 0 .427 1.896.955 2.373.66.185-.115.559.06.831.387.272.328.715.596.984.596.819 0 4.176 3.679 4.64 5.084.239.724.555 1.316.703 1.316.466 0 .127 136.996-.343 138.231-.23.605-.38 1.836-.334 2.735.046.899-.143 2.056-.419 2.571-.277.516-.392 1.378-.257 1.917.159.636.021 1.204-.395 1.62-.39.39-.553.992-.416 1.538.137.543-.01 1.092-.371 1.391-.328.272-.596.776-.596 1.119 0 .625-1.273 4.591-2.08 6.478a61.08 61.08 0 0 0-.733 1.8c-1.357 3.552-4.067 9.139-6.418 13.235-3.071 5.349-6.458 10.089-12.028 16.831-2.485 3.008-14.653 15.048-18.749 18.551-4.505 3.852-12.937 10.558-15.192 12.082-.55.372-2.8 1.936-5 3.476s-5.17 3.501-6.6 4.359c-1.43.858-4.76 2.846-7.4 4.418-2.64 1.573-5.07 3.04-5.4 3.262-.33.221-1.14.668-1.8.994-.66.325-1.92 1.031-2.8 1.568-1.616.986-8.185 4.288-12.155 6.109-6.552 3.006-10.247 1.968-26.645-7.486-.88-.508-2.5-1.41-3.6-2.007-1.1-.596-3.8-2.198-6-3.561-2.2-1.362-4.353-2.691-4.785-2.954-.727-.442-10.422-6.92-12.387-8.277-2.67-1.844-10.525-8.177-16.691-13.458-9.749-8.35-24.437-25.055-27.735-31.542-.335-.66-1.145-2.1-1.798-3.2-1.982-3.334-4.67-9.001-6.831-14.4-.543-1.357-1.88-5.54-2.141-6.7-.136-.605-.419-1.1-.63-1.1-.21 0-.281-.505-.158-1.122.151-.753.017-1.295-.406-1.646-.409-.34-.546-.859-.39-1.481.144-.572-.016-1.348-.398-1.931a2.9 2.9 0 0 1-.409-2.124c.126-.632.03-1.891-.215-2.799-.901-3.348-.579-137.681.335-139.766 1.358-3.095 4.288-5.479 7.539-6.133 1.897-.382 1.589-.998-.5-.998-.99 0-1.8.18-1.8.4m99.901 27.5c-.08.165-.044.93.082 1.7.18 1.105.29 1.245.524.664.163-.405.194-.9.071-1.1-.135-.218 15.146-.364 37.998-.364H277.2v57.576c0 37.953-.136 57.661-.4 57.824-.517.32-.524 4.6-.008 4.6.554 0 .944-1.819.677-3.156-.128-.64-.019-1.334.253-1.606.645-.645.913-114.452.272-115.649-.438-.819-77.296-1.303-77.693-.489M275.6 222.367c0 .678-.18 1.233-.4 1.233-.22 0-.4.54-.4 1.2 0 .66-.18 1.2-.4 1.2-.22 0-.4.54-.4 1.2 0 .66-.18 1.2-.4 1.2-.22 0-.4.54-.4 1.2 0 .66-.18 1.2-.4 1.2-.22 0-.4.36-.4.8 0 .44-.135.801-.3.803-.311.003-1.3 1.9-1.3 2.493 0 .186-.36.724-.8 1.196-.44.472-.8 1.095-.8 1.383 0 .289-.18.525-.4.525-.22 0-.4.32-.4.712 0 .391-.36.971-.8 1.288-.44.317-.8.857-.8 1.2 0 .343-.36.883-.8 1.2-.44.317-.8.807-.8 1.088s-.72 1.253-1.6 2.16c-.88.907-1.6 1.803-1.6 1.991 0 .188-.9 1.286-2 2.439s-2 2.239-2 2.413c0 .446-11.514 11.909-11.962 11.909-.202 0-1.465 1.08-2.806 2.4-1.34 1.32-2.594 2.4-2.786 2.4-.192 0-1.091.72-1.998 1.6-.907.88-1.802 1.6-1.989 1.6-.187 0-.905.54-1.596 1.2-.691.66-1.455 1.2-1.699 1.2s-.947.54-1.564 1.2c-.617.66-1.337 1.2-1.6 1.2-.263 0-.983.54-1.6 1.2-.617.66-1.369 1.2-1.672 1.2-.303 0-.811.36-1.128.8-.317.44-.857.8-1.2.8-.343 0-.883.36-1.2.8-.317.44-.857.8-1.2.8-.343 0-.883.36-1.2.8-.317.44-.857.8-1.2.8-.343 0-.883.36-1.2.8-.317.44-.814.8-1.105.8-.291 0-.915.36-1.387.8-.472.44-1.095.8-1.383.8-.289 0-.525.18-.525.4 0 .22-.32.4-.712.4-.391 0-.971.36-1.288.8-.317.44-.897.8-1.288.8-.392 0-.712.18-.712.4 0 .22-.32.4-.712.4-.391 0-.971.36-1.288.8-.317.44-.897.8-1.288.8-.392 0-.712.18-.712.4 0 .22-.36.4-.8.4-.44 0-.8.18-.8.4 0 .22-.32.4-.712.4-.391 0-.971.36-1.288.8-.742 1.029-1.036 1.008-1.414-.1-.277-.81-.324-.766-.475.438-.216 1.724.065 1.963 1.401 1.193.599-.344 2.168-1.219 3.488-1.943 1.32-.725 4.2-2.423 6.4-3.775 2.2-1.352 4.435-2.718 4.968-3.035.909-.543 7.84-5.14 10.032-6.654 1.413-.977 11.289-8.445 13.387-10.124 9.336-7.472 20.084-18.491 25.947-26.6 3.63-5.021 8.189-13.663 9.495-18 .265-.88.655-1.981.866-2.447.47-1.038.278-2.229-.395-2.453-.328-.109-.5.258-.5 1.067" fill="#abc5ea"/><path d="M100.615 74.823c-2.971 1.482-4.435 3.377-5.387 6.977-.554 2.091-.587 127.225-.036 133.8 2.367 28.232 18.703 53.724 50.669 79.064 13.853 10.982 34.344 23.538 49.451 30.301 2.734 1.224 6.164 1.38 8.539.388 2.03-.847 11.757-5.668 12.316-6.103.238-.186 1.873-1.111 3.633-2.055 32.177-17.263 61.39-43.288 73.407-65.395 6.578-12.101 9.476-20.554 11.453-33.4.509-3.304.642-133.97.139-136.293-.822-3.795-2.684-6.18-5.863-7.508-2.571-1.074-196.156-.856-198.321.224M278.723 157.6c.132 62.165.195 60.055-2.008 67.4-6.737 22.457-32.447 47.896-70.427 69.687-4.845 2.779-6.018 3.303-6.5 2.903-.797-.662-.903-196.715-.106-197.512.371-.371 9.528-.458 39.7-.38l39.218.102.123 57.8" fill="#fcfcfc"/><path d="M104 72.771c0 .204-.302.429-.672.5-.369.071 43.133.129 96.672.129 53.539 0 97.041-.058 96.672-.129-.37-.071-.672-.296-.672-.5 0-.227-37.331-.371-96-.371s-96 .144-96 .371M94.024 216.4c-.007.33.247 1.32.564 2.2.317.88.582 1.33.588 1 .007-.33-.247-1.32-.564-2.2-.317-.88-.582-1.33-.588-1m211.208 1.539c-.237.445-.431 1.045-.43 1.335.002.289.275.004.608-.634.332-.637.526-1.238.43-1.334-.097-.096-.37.189-.608.633M94.815 222.8c.006.33.275.949.598 1.376.755.999.75.629-.011-.83-.328-.63-.592-.876-.587-.546m208.884 4.391c-.687 1.099-.625 1.392.133.634.348-.348.572-.812.499-1.033-.074-.22-.358-.041-.632.399M253.188 259.1l-2.588 2.7 2.7-2.588c1.485-1.424 2.7-2.639 2.7-2.7 0-.295-.407.08-2.812 2.588M132.4 284.125c0 .069.585.654 1.3 1.3l1.3 1.175-1.175-1.3c-1.095-1.212-1.425-1.484-1.425-1.175" fill="#c4d4f4"/><path d="M151.9 73.5c26.455.057 69.745.057 96.2 0s4.81-.103-48.1-.103c-52.91 0-74.555.046-48.1.103" fill="#cde0f6"/><path d="M305.044 81.8c.329 1.471.558 1.79.55.767-.003-.422-.189-1.037-.412-1.367-.297-.438-.334-.276-.138.6m-105.186 19.8c.317 1.725.544 2.051.536.767-.003-.532-.183-1.237-.4-1.567-.276-.422-.317-.185-.136.8m.29 9.2c0 2.31.066 3.255.147 2.1a36.327 36.327 0 0 0 0-4.2c-.081-1.155-.147-.21-.147 2.1M94.509 214.4c0 .99.078 1.395.173.9a5.661 5.661 0 0 0 0-1.8c-.095-.495-.173-.09-.173.9m210.805.2c.003 1.1.081 1.503.173.895.092-.609.09-1.509-.005-2-.095-.492-.171.005-.168 1.105m-.868 7.067c-.025.367-.15.997-.276 1.4-.218.695-.207.696.227.02.251-.391.376-1.021.276-1.4-.162-.619-.185-.621-.227-.02M253.593 259.1 249 263.8l4.7-4.593c4.366-4.267 4.882-4.807 4.593-4.807-.058 0-2.173 2.115-4.7 4.7M120.8 272.125c0 .069.585.654 1.3 1.3l1.3 1.175-1.175-1.3c-1.095-1.212-1.425-1.484-1.425-1.175m156.975 1.175-1.175 1.3 1.3-1.175c1.212-1.095 1.484-1.425 1.175-1.425-.069 0-.654.585-1.3 1.3m-77.603 9.7c0 5.06.057 7.075.127 4.477.07-2.597.069-6.737-.001-9.2-.07-2.462-.127-.337-.126 4.723m66.606 1.3-1.378 1.5 1.5-1.378c1.396-1.284 1.684-1.622 1.378-1.622-.066 0-.741.675-1.5 1.5m-67.057 11.356c-.025 1.096.082 1.467.315 1.1.442-.698.474-2.756.042-2.756-.176 0-.337.745-.357 1.656" fill="#ddecfc"/><path d="M100.565 74.434c-.899.436-2.249 1.455-3 2.263L96.2 78.166l1.691-1.474C101.265 73.751 91.825 74 200 74s98.735-.249 102.109 2.692l1.691 1.474-1.366-1.47c-3.189-3.432 7.928-3.099-102.53-3.076-96.612.02-97.722.029-99.339.814m-4.944 4.927c-.283.528-.417 1.203-.299 1.5.13.327.227.216.246-.281.018-.451.245-1.033.505-1.293.261-.261.381-.566.268-.68-.114-.113-.438.226-.72.754m207.979-.674c0 .256.18.577.4.713.22.136.421.642.446 1.124.036.665.091.709.228.183.1-.38-.101-1.096-.446-1.589-.345-.493-.628-.687-.628-.431M94.652 82.5c-.326 1.218-.241 129.121.088 131.9.143 1.21.26-28.175.26-65.3s-.024-67.5-.053-67.5c-.03 0-.162.405-.295.9M305.395 148c0 35.75.047 50.375.105 32.5.058-17.875.058-47.125 0-65s-.105-3.25-.105 32.5m-105.713-47.922c-.792.792-.692 196.85.101 197.508.538.447 4.136-1 3.663-1.473-.08-.08-.806.244-1.613.72-.807.477-1.594.739-1.75.584-.377-.376-.447-3.417-.079-3.417.308 0 .289-191.658-.02-193-.183-.795.047-.801 39.115-.902l39.298-.102.104 58.602.103 58.602-.002-58.7-.002-58.7-39.218-.102c-30.172-.078-39.329.009-39.7.38M304.914 215c.003 1.1.081 1.503.173.895.092-.609.09-1.509-.005-2-.095-.492-.171.005-.168 1.105m-209.686 4.633c.016.972.178 2.127.362 2.567.202.483.248-.151.117-1.6-.262-2.89-.518-3.407-.479-.967m182.621-1.018c-.137.358-.226 1.221-.199 1.918.042 1.054.1.965.349-.533.318-1.914.26-2.452-.15-1.385m26.66.985c0 .99.078 1.395.173.9a5.661 5.661 0 0 0 0-1.8c-.095-.495-.173-.09-.173.9m-27.46 3.015a3.854 3.854 0 0 0-.215 1.318c.019.367.193.136.387-.513.377-1.262.244-1.887-.172-.805M96.093 224.4c0 .77.082 1.085.183.7.1-.385.1-1.015 0-1.4-.101-.385-.183-.07-.183.7m207.6 0c0 .77.082 1.085.183.7.1-.385.1-1.015 0-1.4-.101-.385-.183-.07-.183.7m-206.887 3.633c.003.532.183 1.237.4 1.567.276.422.317.185.136-.8-.317-1.725-.544-2.051-.536-.767m206.048-.166a8.132 8.132 0 0 1-.284 1.6c-.218.694-.206.695.226.021.251-.391.379-1.111.285-1.6-.172-.887-.172-.887-.227-.021M97.624 230.8c-.007.33.247 1.32.564 2.2.317.88.582 1.33.588 1 .007-.33-.247-1.32-.564-2.2-.317-.88-.582-1.33-.588-1m204.075 1.19c-.703 2.252-.586 2.968.144.883.333-.95.549-1.897.48-2.104-.069-.208-.35.342-.624 1.221m-29.229 2.51c-.905 1.815-2.031 3.93-2.501 4.7-.807 1.32-.809 1.343-.033.4 1.3-1.581 4.8-8.4 4.312-8.4-.073 0-.873 1.485-1.778 3.3m27.443 2.881c-.371 1-.596 1.819-.499 1.819.279 0 1.417-2.906 1.289-3.291-.064-.191-.419.471-.79 1.472M100.83 240c-.002.576 1.127 2.866 1.156 2.346.008-.14-.249-.86-.57-1.6-.322-.74-.585-1.076-.586-.746m197.027 2.284a25.02 25.02 0 0 1-.638 1.616c-.64 1.464-.116 1.025.615-.514.369-.778.58-1.505.469-1.616-.111-.111-.311.12-.446.514M265.6 245.6c-.47.66-.764 1.2-.654 1.2.11 0 .584-.54 1.054-1.2.47-.66.764-1.2.654-1.2-.11 0-.584.54-1.054 1.2m-4.974 6.3c-1.305 1.485-1.783 2.16-1.062 1.5 1.254-1.149 3.848-4.2 3.57-4.2-.074 0-1.202 1.215-2.508 2.7m32.407.208c-.614 1.15-.934 1.912-.712 1.692.577-.571 2.146-3.466 1.973-3.639-.08-.08-.647.796-1.261 1.947m-186.618-.308c.002.22.371.85.821 1.4.543.664.679.731.404.2-.674-1.305-1.228-2.028-1.225-1.6m147.378 7.5-4.393 4.5 4.5-4.393c4.18-4.081 4.682-4.607 4.393-4.607-.059 0-2.084 2.025-4.5 4.5m36.853-3.1c-.355.55-.937 1.495-1.293 2.1l-.648 1.1.805-.974c.95-1.15 2.211-3.226 1.959-3.226-.098 0-.468.45-.823 1m-181.846-.449c0 .379 3.968 6.249 4.224 6.249.11 0-.732-1.395-1.872-3.1-2.389-3.573-2.352-3.524-2.352-3.149m178.784 5.072c-.479.673-.805 1.29-.723 1.371.082.082.553-.468 1.047-1.223 1.115-1.7.863-1.815-.324-.148m-46.506 9.79c-.618.543-.964.987-.77.987.194 0 .775-.45 1.292-1 1.195-1.272.931-1.266-.522.013m37.103 1.887-1.581 1.7 1.7-1.581c1.581-1.471 1.884-1.819 1.581-1.819-.065 0-.83.765-1.7 1.7m-157.381-.775c0 .069.585.654 1.3 1.3l1.3 1.175-1.175-1.3c-1.095-1.212-1.425-1.484-1.425-1.175m116.8 1.707c-2.208 1.747-3.03 2.6-1.4 1.453 1.602-1.127 3.65-2.854 3.4-2.867-.11-.006-1.01.631-2 1.414m-111.4 4.11c1.76 1.824 4.46 4.417 6 5.76 3.312 2.891 2.52 2.076-4.2-4.319-3.489-3.32-4.033-3.756-1.8-1.441m144.6 2.558c-3.19 3.112-4.36 4.377-2.6 2.81 3.203-2.852 8.946-8.528 8.589-8.49-.104.011-2.799 2.567-5.989 5.68m-41.5-.46c-.935.662-1.7 1.293-1.7 1.401 0 .109.81-.36 1.8-1.041.99-.681 1.8-1.32 1.8-1.419 0-.276-.076-.233-1.9 1.059m-92.183 8.072c2.934 2.668 3.762 3.119 1.083.59-1.32-1.246-2.527-2.274-2.683-2.284-.155-.01.565.752 1.6 1.694m124.683.59c-1.32 1.246-2.04 2.009-1.6 1.694 1.264-.903 4.596-3.998 4.283-3.978-.156.01-1.363 1.038-2.683 2.284m-44.713-.534c-2.218 1.536-3.042 2.334-1.287 1.247 2.473-1.532 3.973-2.614 3.593-2.593-.216.012-1.254.618-2.306 1.346m-5.806 3.604c-1.96 1.386-2.096 1.693-.281.633 1.878-1.095 2.525-1.614 1.98-1.585-.209.01-.973.439-1.699.952m45.319 1.318c-2.145 1.989-1.379 1.586 1.101-.579.826-.721 1.366-1.303 1.2-1.293-.165.01-1.201.852-2.301 1.872m-114.236-.555c.585.728 2.836 2.442 2.836 2.159 0-.088-.765-.768-1.7-1.511-.935-.743-1.446-1.035-1.136-.648m65.236 1.501c-.664.543-.731.679-.2.404 1.305-.674 2.028-1.228 1.6-1.225-.22.002-.85.371-1.4.821m-2.8 1.6c-.664.543-.731.679-.2.404 1.305-.674 2.028-1.228 1.6-1.225-.22.002-.85.371-1.4.821m-58.436.099c.585.728 2.836 2.442 2.836 2.159 0-.088-.765-.768-1.7-1.511-.935-.743-1.446-1.035-1.136-.648m105.836.925c-1.205 1.076-1.295 1.225-.364.603 1.105-.739 2.496-2.087 2.113-2.048-.082.008-.869.658-1.749 1.445m-3.4 2.589c-1.394 1.222-1.395 1.223-.112.37.708-.471 1.394-1.028 1.524-1.238.385-.624.065-.427-1.412.868m-98.8-.726c0 .189 4.435 3.487 7.3 5.428 1.045.708 1.9 1.194 1.9 1.08 0-.113-1.305-1.109-2.9-2.213a353.865 353.865 0 0 1-4.6-3.234c-.935-.675-1.7-1.153-1.7-1.061m89.803 6.902c-2.418 1.636-4.257 2.975-4.087 2.975.39 0 8.684-5.549 8.684-5.809 0-.284.128-.363-4.597 2.834m-80.203-.124c0 .175.805.74 4.1 2.877.605.393 1.1.627 1.1.521 0-.175-.805-.74-4.1-2.877-.605-.393-1.1-.627-1.1-.521m7.6 4.8c0 .254 3.096 2.299 3.48 2.299.164 0-.057-.242-.491-.539-1.908-1.302-2.989-1.939-2.989-1.76m63 1.499c-.66.437-1.02.792-.8.788.401-.006 2.576-1.565 2.2-1.576-.11-.004-.74.351-1.4.788m-57 2.364c.55.45 1.18.819 1.4.821.428.003-.295-.551-1.6-1.225-.531-.275-.464-.139.2.404m2.8 1.6c.55.45 1.18.819 1.4.821.428.003-.295-.551-1.6-1.225-.531-.275-.464-.139.2.404m2.8 1.6c.55.45 1.18.819 1.4.821.428.003-.295-.551-1.6-1.225-.531-.275-.464-.139.2.404m41.108.333c-1.041.579-1.827 1.117-1.747 1.197.162.162 3.027-1.367 3.619-1.932.595-.567.169-.4-1.872.735m-38.308 1.267c.55.45 1.18.819 1.4.821.428.003-.295-.551-1.6-1.225-.531-.275-.464-.139.2.404m34.6.836c-.66.437-1.02.792-.8.788.401-.006 2.576-1.565 2.2-1.576-.11-.004-.74.351-1.4.788m-28.389 2.534c.885.598 2.189 1.124 2.189.883 0-.18-2.402-1.417-2.75-1.417-.126 0 .127.24.561.534m5.389 2.449c0 .241 2.463 1.417 2.961 1.415.242-.002-.011-.236-.561-.522-1.328-.689-2.4-1.088-2.4-.893m3.959 1.938c.177.176 1.474.264 2.882.195l2.559-.125-2.882-.196c-1.585-.107-2.737-.051-2.559.126" fill="#ecf4fc"/></g></svg>