<svg id="svg" version="1.1" xmlns="http://www.w3.org/2000/svg" xmlns:xlink="http://www.w3.org/1999/xlink" width="400" height="400" viewBox="0, 0, 400,400"><g id="svgg"><path id="path0" d="M100.400 72.800 C 100.400 73.020,100.116 73.200,99.769 73.200 C 98.752 73.200,94.000 78.344,94.000 79.446 C 94.000 79.971,93.820 80.400,93.600 80.400 C 93.335 80.400,93.200 103.859,93.200 149.976 C 93.200 195.929,93.336 219.637,93.600 219.800 C 93.820 219.936,94.000 220.926,94.000 222.000 C 94.000 223.074,94.180 224.064,94.400 224.200 C 94.620 224.336,94.800 225.146,94.800 226.000 C 94.800 226.854,94.980 227.664,95.200 227.800 C 95.420 227.936,95.600 228.476,95.600 229.000 C 95.600 229.524,95.780 230.064,96.000 230.200 C 96.220 230.336,96.400 231.247,96.400 232.224 C 96.400 233.201,96.580 234.000,96.800 234.000 C 97.020 234.000,97.200 234.540,97.200 235.200 C 97.200 235.860,97.380 236.400,97.600 236.400 C 97.820 236.400,98.000 236.672,98.000 237.005 C 98.000 237.338,98.159 237.923,98.353 238.305 C 98.548 238.687,98.929 239.540,99.200 240.200 C 99.471 240.860,99.852 241.713,100.047 242.095 C 100.241 242.477,100.400 243.152,100.400 243.595 C 100.400 244.038,100.580 244.400,100.800 244.400 C 101.020 244.400,101.200 244.760,101.200 245.200 C 101.200 245.640,101.380 246.000,101.600 246.000 C 101.820 246.000,102.000 246.360,102.000 246.800 C 102.000 247.240,102.180 247.600,102.400 247.600 C 102.620 247.600,102.800 247.960,102.800 248.400 C 102.800 248.840,102.980 249.200,103.200 249.200 C 103.420 249.200,103.600 249.560,103.600 250.000 C 103.600 250.440,103.780 250.800,104.000 250.800 C 104.220 250.800,104.400 251.036,104.400 251.325 C 104.400 251.613,104.760 252.236,105.200 252.708 C 105.640 253.180,106.000 253.757,106.000 253.989 C 106.000 254.399,106.795 255.996,107.201 256.400 C 107.311 256.510,107.656 257.095,107.968 257.700 C 108.280 258.305,108.685 258.800,108.868 258.800 C 109.050 258.800,109.200 259.088,109.200 259.440 C 109.200 259.791,109.740 260.583,110.400 261.200 C 111.060 261.817,111.600 262.537,111.600 262.800 C 111.600 263.063,112.140 263.783,112.800 264.400 C 113.460 265.017,114.000 265.719,114.000 265.960 C 114.000 266.202,114.720 267.141,115.600 268.048 C 116.480 268.955,117.200 269.854,117.200 270.045 C 117.200 270.317,122.097 275.517,126.490 279.910 C 130.922 284.343,136.084 289.200,136.362 289.200 C 136.558 289.200,137.638 290.100,138.761 291.200 C 139.885 292.300,140.965 293.200,141.161 293.200 C 141.358 293.200,142.438 294.100,143.561 295.200 C 144.685 296.300,145.783 297.200,146.002 297.200 C 146.220 297.200,147.141 297.920,148.048 298.800 C 148.955 299.680,149.905 300.400,150.160 300.400 C 150.415 300.400,150.883 300.760,151.200 301.200 C 151.517 301.640,152.057 302.000,152.400 302.000 C 152.743 302.000,153.283 302.360,153.600 302.800 C 153.917 303.240,154.425 303.600,154.728 303.600 C 155.031 303.600,155.783 304.140,156.400 304.800 C 157.017 305.460,157.809 306.000,158.160 306.000 C 158.512 306.000,158.800 306.180,158.800 306.400 C 158.800 306.620,159.072 306.800,159.404 306.800 C 159.736 306.800,160.572 307.340,161.263 308.000 C 161.954 308.660,162.762 309.200,163.059 309.200 C 163.357 309.200,163.600 309.380,163.600 309.600 C 163.600 309.820,163.960 310.000,164.400 310.000 C 164.840 310.000,165.200 310.150,165.200 310.332 C 165.200 310.515,165.695 310.920,166.300 311.232 C 166.905 311.545,167.749 312.115,168.175 312.500 C 168.602 312.885,169.187 313.200,169.475 313.200 C 169.764 313.200,170.000 313.380,170.000 313.600 C 170.000 313.820,170.360 314.000,170.800 314.000 C 171.240 314.000,171.600 314.180,171.600 314.400 C 171.600 314.620,171.836 314.800,172.125 314.800 C 172.413 314.800,173.036 315.160,173.508 315.600 C 173.980 316.040,174.644 316.400,174.983 316.400 C 175.322 316.400,175.600 316.580,175.600 316.800 C 175.600 317.020,175.920 317.200,176.312 317.200 C 176.703 317.200,177.283 317.560,177.600 318.000 C 177.917 318.440,178.497 318.800,178.888 318.800 C 179.280 318.800,179.600 318.980,179.600 319.200 C 179.600 319.420,179.960 319.600,180.400 319.600 C 180.840 319.600,181.200 319.780,181.200 320.000 C 181.200 320.220,181.560 320.400,182.000 320.400 C 182.440 320.400,182.800 320.580,182.800 320.800 C 182.800 321.020,183.078 321.200,183.417 321.200 C 183.756 321.200,184.420 321.560,184.892 322.000 C 185.364 322.440,186.066 322.800,186.452 322.800 C 186.837 322.800,187.264 322.980,187.400 323.200 C 187.536 323.420,187.997 323.600,188.424 323.600 C 188.851 323.600,189.200 323.747,189.200 323.926 C 189.200 324.392,192.331 326.000,193.238 326.000 C 193.657 326.000,194.000 326.180,194.000 326.400 C 194.000 326.620,194.349 326.800,194.776 326.800 C 195.203 326.800,195.664 326.980,195.800 327.200 C 195.936 327.420,196.566 327.600,197.200 327.600 C 197.834 327.600,198.464 327.780,198.600 328.000 C 198.921 328.519,201.079 328.519,201.400 328.000 C 201.536 327.780,202.076 327.600,202.600 327.600 C 203.124 327.600,203.664 327.420,203.800 327.200 C 203.936 326.980,204.487 326.800,205.024 326.800 C 205.561 326.800,206.000 326.620,206.000 326.400 C 206.000 326.180,206.253 326.000,206.562 326.000 C 207.228 326.000,210.541 324.332,210.733 323.900 C 210.807 323.735,211.257 323.596,211.733 323.591 C 212.210 323.586,213.050 323.230,213.600 322.800 C 214.150 322.370,214.825 322.014,215.100 322.009 C 215.375 322.004,215.600 321.820,215.600 321.600 C 215.600 321.380,215.960 321.200,216.400 321.200 C 216.840 321.200,217.200 321.020,217.200 320.800 C 217.200 320.580,217.545 320.400,217.967 320.400 C 218.388 320.400,218.793 320.265,218.867 320.100 C 218.940 319.935,219.855 319.367,220.900 318.837 C 221.945 318.308,222.800 317.723,222.800 317.537 C 222.800 317.352,223.160 317.200,223.600 317.200 C 224.040 317.200,224.400 317.041,224.400 316.847 C 224.400 316.652,224.715 316.393,225.100 316.271 C 225.796 316.051,228.018 314.787,228.400 314.395 C 228.510 314.282,229.455 313.758,230.500 313.232 C 231.545 312.705,232.400 312.123,232.400 311.937 C 232.400 311.752,232.636 311.600,232.925 311.600 C 233.213 311.600,233.836 311.240,234.308 310.800 C 234.780 310.360,235.444 310.000,235.783 310.000 C 236.122 310.000,236.400 309.820,236.400 309.600 C 236.400 309.380,236.643 309.200,236.941 309.200 C 237.238 309.200,238.046 308.660,238.737 308.000 C 239.428 307.340,240.264 306.800,240.596 306.800 C 240.928 306.800,241.200 306.620,241.200 306.400 C 241.200 306.180,241.443 306.000,241.741 306.000 C 242.038 306.000,242.846 305.460,243.537 304.800 C 244.228 304.140,244.976 303.600,245.200 303.600 C 245.424 303.600,246.172 303.060,246.863 302.400 C 247.554 301.740,248.322 301.200,248.571 301.200 C 248.820 301.200,249.283 300.840,249.600 300.400 C 249.917 299.960,250.425 299.600,250.728 299.600 C 251.031 299.600,251.783 299.060,252.400 298.400 C 253.017 297.740,253.697 297.200,253.912 297.200 C 254.127 297.200,255.045 296.480,255.952 295.600 C 256.859 294.720,257.762 294.000,257.960 294.000 C 258.157 294.000,259.198 293.145,260.273 292.100 C 261.347 291.055,262.937 289.664,263.806 289.009 C 265.862 287.458,283.600 269.698,283.600 269.190 C 283.600 268.976,284.320 268.059,285.200 267.152 C 286.080 266.245,286.800 265.295,286.800 265.040 C 286.800 264.785,287.160 264.317,287.600 264.000 C 288.040 263.683,288.400 263.238,288.401 263.012 C 288.401 262.785,288.941 261.970,289.600 261.200 C 290.259 260.430,290.799 259.575,290.799 259.300 C 290.800 259.025,290.980 258.800,291.200 258.800 C 291.420 258.800,291.600 258.480,291.600 258.088 C 291.600 257.697,291.960 257.117,292.400 256.800 C 292.840 256.483,293.200 255.903,293.200 255.512 C 293.200 255.120,293.352 254.800,293.537 254.800 C 293.723 254.800,294.308 253.945,294.837 252.900 C 295.367 251.855,295.935 250.940,296.100 250.867 C 296.265 250.793,296.400 250.388,296.400 249.967 C 296.400 249.545,296.580 249.200,296.800 249.200 C 297.020 249.200,297.200 248.840,297.200 248.400 C 297.200 247.960,297.380 247.600,297.600 247.600 C 297.820 247.600,298.000 247.366,298.000 247.080 C 298.000 246.344,298.941 244.407,299.300 244.403 C 299.465 244.401,299.600 243.860,299.600 243.200 C 299.600 242.540,299.780 242.000,300.000 242.000 C 300.220 242.000,300.400 241.640,300.400 241.200 C 300.400 240.760,300.580 240.400,300.800 240.400 C 301.020 240.400,301.200 239.961,301.200 239.424 C 301.200 238.887,301.380 238.336,301.600 238.200 C 301.820 238.064,302.000 237.603,302.000 237.176 C 302.000 236.749,302.180 236.400,302.400 236.400 C 302.620 236.400,302.800 235.871,302.800 235.224 C 302.800 234.577,302.980 233.936,303.200 233.800 C 303.420 233.664,303.600 233.034,303.600 232.400 C 303.600 231.766,303.780 231.136,304.000 231.000 C 304.220 230.864,304.400 230.043,304.400 229.176 C 304.400 228.309,304.580 227.600,304.800 227.600 C 305.020 227.600,305.200 226.981,305.200 226.224 C 305.200 225.467,305.380 224.736,305.600 224.600 C 305.820 224.464,306.000 223.114,306.000 221.600 C 306.000 220.086,306.180 218.736,306.400 218.600 C 306.664 218.437,306.800 194.929,306.800 149.376 C 306.800 103.659,306.665 80.400,306.400 80.400 C 306.180 80.400,306.000 79.967,306.000 79.438 C 306.000 78.328,301.293 73.200,300.275 73.200 C 299.930 73.200,299.536 73.020,299.400 72.800 C 299.094 72.305,296.000 72.265,296.000 72.757 C 296.000 73.184,297.896 73.712,298.373 73.417 C 298.558 73.302,298.932 73.477,299.204 73.804 C 299.476 74.132,299.919 74.400,300.188 74.400 C 301.007 74.400,304.364 78.079,304.828 79.484 C 305.067 80.208,305.383 80.800,305.531 80.800 C 305.997 80.800,305.658 217.796,305.188 219.031 C 304.958 219.636,304.808 220.867,304.854 221.766 C 304.900 222.665,304.711 223.822,304.435 224.337 C 304.158 224.853,304.043 225.715,304.178 226.254 C 304.337 226.890,304.199 227.458,303.783 227.874 C 303.393 228.264,303.230 228.866,303.367 229.412 C 303.504 229.955,303.357 230.504,302.996 230.803 C 302.668 231.075,302.400 231.579,302.400 231.922 C 302.400 232.547,301.127 236.513,300.320 238.400 C 300.085 238.950,299.755 239.760,299.587 240.200 C 298.230 243.752,295.520 249.339,293.169 253.435 C 290.098 258.784,286.711 263.524,281.141 270.266 C 278.656 273.274,266.488 285.314,262.392 288.817 C 257.887 292.669,249.455 299.375,247.200 300.899 C 246.650 301.271,244.400 302.835,242.200 304.375 C 240.000 305.915,237.030 307.876,235.600 308.734 C 234.170 309.592,230.840 311.580,228.200 313.152 C 225.560 314.725,223.130 316.192,222.800 316.414 C 222.470 316.635,221.660 317.082,221.000 317.408 C 220.340 317.733,219.080 318.439,218.200 318.976 C 216.584 319.962,210.015 323.264,206.045 325.085 C 199.493 328.091,195.798 327.053,179.400 317.599 C 178.520 317.091,176.900 316.189,175.800 315.592 C 174.700 314.996,172.000 313.394,169.800 312.031 C 167.600 310.669,165.447 309.340,165.015 309.077 C 164.288 308.635,154.593 302.157,152.628 300.800 C 149.958 298.956,142.103 292.623,135.937 287.342 C 126.188 278.992,111.500 262.287,108.202 255.800 C 107.867 255.140,107.057 253.700,106.404 252.600 C 104.422 249.266,101.734 243.599,99.573 238.200 C 99.030 236.843,97.693 232.660,97.432 231.500 C 97.296 230.895,97.013 230.400,96.802 230.400 C 96.592 230.400,96.521 229.895,96.644 229.278 C 96.795 228.525,96.661 227.983,96.238 227.632 C 95.829 227.292,95.692 226.773,95.848 226.151 C 95.992 225.579,95.832 224.803,95.450 224.220 C 95.048 223.607,94.896 222.818,95.041 222.096 C 95.167 221.464,95.071 220.205,94.826 219.297 C 93.925 215.949,94.247 81.616,95.161 79.531 C 96.519 76.436,99.449 74.052,102.700 73.398 C 104.597 73.016,104.289 72.400,102.200 72.400 C 101.210 72.400,100.400 72.580,100.400 72.800 M200.301 100.300 C 200.221 100.465,200.257 101.230,200.383 102.000 C 200.563 103.105,200.673 103.245,200.907 102.664 C 201.070 102.259,201.101 101.764,200.978 101.564 C 200.843 101.346,216.124 101.200,238.976 101.200 L 277.200 101.200 277.200 158.776 C 277.200 196.729,277.064 216.437,276.800 216.600 C 276.283 216.920,276.276 221.200,276.792 221.200 C 277.346 221.200,277.736 219.381,277.469 218.044 C 277.341 217.404,277.450 216.710,277.722 216.438 C 278.367 215.793,278.635 101.986,277.994 100.789 C 277.556 99.970,200.698 99.486,200.301 100.300 M275.600 222.367 C 275.600 223.045,275.420 223.600,275.200 223.600 C 274.980 223.600,274.800 224.140,274.800 224.800 C 274.800 225.460,274.620 226.000,274.400 226.000 C 274.180 226.000,274.000 226.540,274.000 227.200 C 274.000 227.860,273.820 228.400,273.600 228.400 C 273.380 228.400,273.200 228.940,273.200 229.600 C 273.200 230.260,273.020 230.800,272.800 230.800 C 272.580 230.800,272.400 231.160,272.400 231.600 C 272.400 232.040,272.265 232.401,272.100 232.403 C 271.789 232.406,270.800 234.303,270.800 234.896 C 270.800 235.082,270.440 235.620,270.000 236.092 C 269.560 236.564,269.200 237.187,269.200 237.475 C 269.200 237.764,269.020 238.000,268.800 238.000 C 268.580 238.000,268.400 238.320,268.400 238.712 C 268.400 239.103,268.040 239.683,267.600 240.000 C 267.160 240.317,266.800 240.857,266.800 241.200 C 266.800 241.543,266.440 242.083,266.000 242.400 C 265.560 242.717,265.200 243.207,265.200 243.488 C 265.200 243.769,264.480 244.741,263.600 245.648 C 262.720 246.555,262.000 247.451,262.000 247.639 C 262.000 247.827,261.100 248.925,260.000 250.078 C 258.900 251.231,258.000 252.317,258.000 252.491 C 258.000 252.937,246.486 264.400,246.038 264.400 C 245.836 264.400,244.573 265.480,243.232 266.800 C 241.892 268.120,240.638 269.200,240.446 269.200 C 240.254 269.200,239.355 269.920,238.448 270.800 C 237.541 271.680,236.646 272.400,236.459 272.400 C 236.272 272.400,235.554 272.940,234.863 273.600 C 234.172 274.260,233.408 274.800,233.164 274.800 C 232.920 274.800,232.217 275.340,231.600 276.000 C 230.983 276.660,230.263 277.200,230.000 277.200 C 229.737 277.200,229.017 277.740,228.400 278.400 C 227.783 279.060,227.031 279.600,226.728 279.600 C 226.425 279.600,225.917 279.960,225.600 280.400 C 225.283 280.840,224.743 281.200,224.400 281.200 C 224.057 281.200,223.517 281.560,223.200 282.000 C 222.883 282.440,222.343 282.800,222.000 282.800 C 221.657 282.800,221.117 283.160,220.800 283.600 C 220.483 284.040,219.943 284.400,219.600 284.400 C 219.257 284.400,218.717 284.760,218.400 285.200 C 218.083 285.640,217.586 286.000,217.295 286.000 C 217.004 286.000,216.380 286.360,215.908 286.800 C 215.436 287.240,214.813 287.600,214.525 287.600 C 214.236 287.600,214.000 287.780,214.000 288.000 C 214.000 288.220,213.680 288.400,213.288 288.400 C 212.897 288.400,212.317 288.760,212.000 289.200 C 211.683 289.640,211.103 290.000,210.712 290.000 C 210.320 290.000,210.000 290.180,210.000 290.400 C 210.000 290.620,209.680 290.800,209.288 290.800 C 208.897 290.800,208.317 291.160,208.000 291.600 C 207.683 292.040,207.103 292.400,206.712 292.400 C 206.320 292.400,206.000 292.580,206.000 292.800 C 206.000 293.020,205.640 293.200,205.200 293.200 C 204.760 293.200,204.400 293.380,204.400 293.600 C 204.400 293.820,204.080 294.000,203.688 294.000 C 203.297 294.000,202.717 294.360,202.400 294.800 C 201.658 295.829,201.364 295.808,200.986 294.700 C 200.709 293.890,200.662 293.934,200.511 295.138 C 200.295 296.862,200.576 297.101,201.912 296.331 C 202.511 295.987,204.080 295.112,205.400 294.388 C 206.720 293.663,209.600 291.965,211.800 290.613 C 214.000 289.261,216.235 287.895,216.768 287.578 C 217.677 287.035,224.608 282.438,226.800 280.924 C 228.213 279.947,238.089 272.479,240.187 270.800 C 249.523 263.328,260.271 252.309,266.134 244.200 C 269.764 239.179,274.323 230.537,275.629 226.200 C 275.894 225.320,276.284 224.219,276.495 223.753 C 276.965 222.715,276.773 221.524,276.100 221.300 C 275.772 221.191,275.600 221.558,275.600 222.367 " stroke="none" fill="#abc5ea" fill-rule="evenodd"></path><path id="path1" d="M100.615 74.823 C 97.644 76.305,96.180 78.200,95.228 81.800 C 94.674 83.891,94.641 209.025,95.192 215.600 C 97.559 243.832,113.895 269.324,145.861 294.664 C 159.714 305.646,180.205 318.202,195.312 324.965 C 198.046 326.189,201.476 326.345,203.851 325.353 C 205.881 324.506,215.608 319.685,216.167 319.250 C 216.405 319.064,218.040 318.139,219.800 317.195 C 251.977 299.932,281.190 273.907,293.207 251.800 C 299.785 239.699,302.683 231.246,304.660 218.400 C 305.169 215.096,305.302 84.430,304.799 82.107 C 303.977 78.312,302.115 75.927,298.936 74.599 C 296.365 73.525,102.780 73.743,100.615 74.823 M278.723 157.600 C 278.855 219.765,278.918 217.655,276.715 225.000 C 269.978 247.457,244.268 272.896,206.288 294.687 C 201.443 297.466,200.270 297.990,199.788 297.590 C 198.991 296.928,198.885 100.875,199.682 100.078 C 200.053 99.707,209.210 99.620,239.382 99.698 L 278.600 99.800 278.723 157.600 " stroke="none" fill="#fcfcfc" fill-rule="evenodd"></path><path id="path2" d="M104.000 72.771 C 104.000 72.975,103.698 73.200,103.328 73.271 C 102.959 73.342,146.461 73.400,200.000 73.400 C 253.539 73.400,297.041 73.342,296.672 73.271 C 296.302 73.200,296.000 72.975,296.000 72.771 C 296.000 72.544,258.669 72.400,200.000 72.400 C 141.331 72.400,104.000 72.544,104.000 72.771 M94.024 216.400 C 94.017 216.730,94.271 217.720,94.588 218.600 C 94.905 219.480,95.170 219.930,95.176 219.600 C 95.183 219.270,94.929 218.280,94.612 217.400 C 94.295 216.520,94.030 216.070,94.024 216.400 M305.232 217.939 C 304.995 218.384,304.801 218.984,304.802 219.274 C 304.804 219.563,305.077 219.278,305.410 218.640 C 305.742 218.003,305.936 217.402,305.840 217.306 C 305.743 217.210,305.470 217.495,305.232 217.939 M94.815 222.800 C 94.821 223.130,95.090 223.749,95.413 224.176 C 96.168 225.175,96.163 224.805,95.402 223.346 C 95.074 222.716,94.810 222.470,94.815 222.800 M303.699 227.191 C 303.012 228.290,303.074 228.583,303.832 227.825 C 304.180 227.477,304.404 227.013,304.331 226.792 C 304.257 226.572,303.973 226.751,303.699 227.191 M253.188 259.100 L 250.600 261.800 253.300 259.212 C 254.785 257.788,256.000 256.573,256.000 256.512 C 256.000 256.217,255.593 256.592,253.188 259.100 M132.400 284.125 C 132.400 284.194,132.985 284.779,133.700 285.425 L 135.000 286.600 133.825 285.300 C 132.730 284.088,132.400 283.816,132.400 284.125 " stroke="none" fill="#c4d4f4" fill-rule="evenodd"></path><path id="path3" d="M151.900 73.500 C 178.355 73.557,221.645 73.557,248.100 73.500 C 274.555 73.443,252.910 73.397,200.000 73.397 C 147.090 73.397,125.445 73.443,151.900 73.500 " stroke="none" fill="#cde0f6" fill-rule="evenodd"></path><path id="path4" d="M305.044 81.800 C 305.373 83.271,305.602 83.590,305.594 82.567 C 305.591 82.145,305.405 81.530,305.182 81.200 C 304.885 80.762,304.848 80.924,305.044 81.800 M199.858 101.600 C 200.175 103.325,200.402 103.651,200.394 102.367 C 200.391 101.835,200.211 101.130,199.994 100.800 C 199.718 100.378,199.677 100.615,199.858 101.600 M200.148 110.800 C 200.148 113.110,200.214 114.055,200.295 112.900 C 200.376 111.745,200.376 109.855,200.295 108.700 C 200.214 107.545,200.148 108.490,200.148 110.800 M94.509 214.400 C 94.509 215.390,94.587 215.795,94.682 215.300 C 94.778 214.805,94.778 213.995,94.682 213.500 C 94.587 213.005,94.509 213.410,94.509 214.400 M305.314 214.600 C 305.317 215.700,305.395 216.103,305.487 215.495 C 305.579 214.886,305.577 213.986,305.482 213.495 C 305.387 213.003,305.311 213.500,305.314 214.600 M304.446 221.667 C 304.421 222.034,304.296 222.664,304.170 223.067 C 303.952 223.762,303.963 223.763,304.397 223.087 C 304.648 222.696,304.773 222.066,304.673 221.687 C 304.511 221.068,304.488 221.066,304.446 221.667 M253.593 259.100 L 249.000 263.800 253.700 259.207 C 258.066 254.940,258.582 254.400,258.293 254.400 C 258.235 254.400,256.120 256.515,253.593 259.100 M120.800 272.125 C 120.800 272.194,121.385 272.779,122.100 273.425 L 123.400 274.600 122.225 273.300 C 121.130 272.088,120.800 271.816,120.800 272.125 M277.775 273.300 L 276.600 274.600 277.900 273.425 C 279.112 272.330,279.384 272.000,279.075 272.000 C 279.006 272.000,278.421 272.585,277.775 273.300 M200.172 283.000 C 200.172 288.060,200.229 290.075,200.299 287.477 C 200.369 284.880,200.368 280.740,200.298 278.277 C 200.228 275.815,200.171 277.940,200.172 283.000 M266.778 284.300 L 265.400 285.800 266.900 284.422 C 268.296 283.138,268.584 282.800,268.278 282.800 C 268.212 282.800,267.537 283.475,266.778 284.300 M199.721 295.656 C 199.696 296.752,199.803 297.123,200.036 296.756 C 200.478 296.058,200.510 294.000,200.078 294.000 C 199.902 294.000,199.741 294.745,199.721 295.656 " stroke="none" fill="#ddecfc" fill-rule="evenodd"></path><path id="path5" d="M100.565 74.434 C 99.666 74.870,98.316 75.889,97.565 76.697 L 96.200 78.166 97.891 76.692 C 101.265 73.751,91.825 74.000,200.000 74.000 C 308.175 74.000,298.735 73.751,302.109 76.692 L 303.800 78.166 302.434 76.696 C 299.245 73.264,310.362 73.597,199.904 73.620 C 103.292 73.640,102.182 73.649,100.565 74.434 M95.621 79.361 C 95.338 79.889,95.204 80.564,95.322 80.861 C 95.452 81.188,95.549 81.077,95.568 80.580 C 95.586 80.129,95.813 79.547,96.073 79.287 C 96.334 79.026,96.454 78.721,96.341 78.607 C 96.227 78.494,95.903 78.833,95.621 79.361 M303.600 78.687 C 303.600 78.943,303.780 79.264,304.000 79.400 C 304.220 79.536,304.421 80.042,304.446 80.524 C 304.482 81.189,304.537 81.233,304.674 80.707 C 304.774 80.327,304.573 79.611,304.228 79.118 C 303.883 78.625,303.600 78.431,303.600 78.687 M94.652 82.500 C 94.326 83.718,94.411 211.621,94.740 214.400 C 94.883 215.610,95.000 186.225,95.000 149.100 C 95.000 111.975,94.976 81.600,94.947 81.600 C 94.917 81.600,94.785 82.005,94.652 82.500 M305.395 148.000 C 305.395 183.750,305.442 198.375,305.500 180.500 C 305.558 162.625,305.558 133.375,305.500 115.500 C 305.442 97.625,305.395 112.250,305.395 148.000 M199.682 100.078 C 198.890 100.870,198.990 296.928,199.783 297.586 C 200.321 298.033,203.919 296.586,203.446 296.113 C 203.366 296.033,202.640 296.357,201.833 296.833 C 201.026 297.310,200.239 297.572,200.083 297.417 C 199.706 297.041,199.636 294.000,200.004 294.000 C 200.312 294.000,200.293 102.342,199.984 101.000 C 199.801 100.205,200.031 100.199,239.099 100.098 L 278.397 99.996 278.501 158.598 L 278.604 217.200 278.602 158.500 L 278.600 99.800 239.382 99.698 C 209.210 99.620,200.053 99.707,199.682 100.078 M304.914 215.000 C 304.917 216.100,304.995 216.503,305.087 215.895 C 305.179 215.286,305.177 214.386,305.082 213.895 C 304.987 213.403,304.911 213.900,304.914 215.000 M95.228 219.633 C 95.244 220.605,95.406 221.760,95.590 222.200 C 95.792 222.683,95.838 222.049,95.707 220.600 C 95.445 217.710,95.189 217.193,95.228 219.633 M277.849 218.615 C 277.712 218.973,277.623 219.836,277.650 220.533 C 277.692 221.587,277.750 221.498,277.999 220.000 C 278.317 218.086,278.259 217.548,277.849 218.615 M304.509 219.600 C 304.509 220.590,304.587 220.995,304.682 220.500 C 304.778 220.005,304.778 219.195,304.682 218.700 C 304.587 218.205,304.509 218.610,304.509 219.600 M277.049 222.615 C 276.912 222.973,276.815 223.566,276.834 223.933 C 276.853 224.300,277.027 224.069,277.221 223.420 C 277.598 222.158,277.465 221.533,277.049 222.615 M96.093 224.400 C 96.093 225.170,96.175 225.485,96.276 225.100 C 96.376 224.715,96.376 224.085,96.276 223.700 C 96.175 223.315,96.093 223.630,96.093 224.400 M303.693 224.400 C 303.693 225.170,303.775 225.485,303.876 225.100 C 303.976 224.715,303.976 224.085,303.876 223.700 C 303.775 223.315,303.693 223.630,303.693 224.400 M96.806 228.033 C 96.809 228.565,96.989 229.270,97.206 229.600 C 97.482 230.022,97.523 229.785,97.342 228.800 C 97.025 227.075,96.798 226.749,96.806 228.033 M302.854 227.867 C 302.825 228.344,302.696 229.064,302.570 229.467 C 302.352 230.161,302.364 230.162,302.796 229.488 C 303.047 229.097,303.175 228.377,303.081 227.888 C 302.909 227.001,302.909 227.001,302.854 227.867 M97.624 230.800 C 97.617 231.130,97.871 232.120,98.188 233.000 C 98.505 233.880,98.770 234.330,98.776 234.000 C 98.783 233.670,98.529 232.680,98.212 231.800 C 97.895 230.920,97.630 230.470,97.624 230.800 M301.699 231.990 C 300.996 234.242,301.113 234.958,301.843 232.873 C 302.176 231.923,302.392 230.976,302.323 230.769 C 302.254 230.561,301.973 231.111,301.699 231.990 M272.470 234.500 C 271.565 236.315,270.439 238.430,269.969 239.200 C 269.162 240.520,269.160 240.543,269.936 239.600 C 271.236 238.019,274.736 231.200,274.248 231.200 C 274.175 231.200,273.375 232.685,272.470 234.500 M299.913 237.381 C 299.542 238.381,299.317 239.200,299.414 239.200 C 299.693 239.200,300.831 236.294,300.703 235.909 C 300.639 235.718,300.284 236.380,299.913 237.381 M100.830 240.000 C 100.828 240.576,101.957 242.866,101.986 242.346 C 101.994 242.206,101.737 241.486,101.416 240.746 C 101.094 240.006,100.831 239.670,100.830 240.000 M297.857 242.284 C 297.723 242.678,297.436 243.405,297.219 243.900 C 296.579 245.364,297.103 244.925,297.834 243.386 C 298.203 242.608,298.414 241.881,298.303 241.770 C 298.192 241.659,297.992 241.890,297.857 242.284 M265.600 245.600 C 265.130 246.260,264.836 246.800,264.946 246.800 C 265.056 246.800,265.530 246.260,266.000 245.600 C 266.470 244.940,266.764 244.400,266.654 244.400 C 266.544 244.400,266.070 244.940,265.600 245.600 M260.626 251.900 C 259.321 253.385,258.843 254.060,259.564 253.400 C 260.818 252.251,263.412 249.200,263.134 249.200 C 263.060 249.200,261.932 250.415,260.626 251.900 M293.033 252.108 C 292.419 253.258,292.099 254.020,292.321 253.800 C 292.898 253.229,294.467 250.334,294.294 250.161 C 294.214 250.081,293.647 250.957,293.033 252.108 M106.415 251.800 C 106.417 252.020,106.786 252.650,107.236 253.200 C 107.779 253.864,107.915 253.931,107.640 253.400 C 106.966 252.095,106.412 251.372,106.415 251.800 M253.793 259.300 L 249.400 263.800 253.900 259.407 C 258.080 255.326,258.582 254.800,258.293 254.800 C 258.234 254.800,256.209 256.825,253.793 259.300 M290.646 256.200 C 290.291 256.750,289.709 257.695,289.353 258.300 L 288.705 259.400 289.510 258.426 C 290.460 257.276,291.721 255.200,291.469 255.200 C 291.371 255.200,291.001 255.650,290.646 256.200 M108.800 255.751 C 108.800 256.130,112.768 262.000,113.024 262.000 C 113.134 262.000,112.292 260.605,111.152 258.900 C 108.763 255.327,108.800 255.376,108.800 255.751 M287.584 260.823 C 287.105 261.496,286.779 262.113,286.861 262.194 C 286.943 262.276,287.414 261.726,287.908 260.971 C 289.023 259.271,288.771 259.156,287.584 260.823 M241.078 270.613 C 240.460 271.156,240.114 271.600,240.308 271.600 C 240.502 271.600,241.083 271.150,241.600 270.600 C 242.795 269.328,242.531 269.334,241.078 270.613 M278.181 272.500 L 276.600 274.200 278.300 272.619 C 279.881 271.148,280.184 270.800,279.881 270.800 C 279.816 270.800,279.051 271.565,278.181 272.500 M120.800 271.725 C 120.800 271.794,121.385 272.379,122.100 273.025 L 123.400 274.200 122.225 272.900 C 121.130 271.688,120.800 271.416,120.800 271.725 M237.600 273.432 C 235.392 275.179,234.570 276.032,236.200 274.885 C 237.802 273.758,239.850 272.031,239.600 272.018 C 239.490 272.012,238.590 272.649,237.600 273.432 M126.200 277.542 C 127.960 279.366,130.660 281.959,132.200 283.302 C 135.512 286.193,134.720 285.378,128.000 278.983 C 124.511 275.663,123.967 275.227,126.200 277.542 M270.800 280.100 C 267.610 283.212,266.440 284.477,268.200 282.910 C 271.403 280.058,277.146 274.382,276.789 274.420 C 276.685 274.431,273.990 276.987,270.800 280.100 M229.300 279.640 C 228.365 280.302,227.600 280.933,227.600 281.041 C 227.600 281.150,228.410 280.681,229.400 280.000 C 230.390 279.319,231.200 278.680,231.200 278.581 C 231.200 278.305,231.124 278.348,229.300 279.640 M137.117 287.712 C 140.051 290.380,140.879 290.831,138.200 288.302 C 136.880 287.056,135.673 286.028,135.517 286.018 C 135.362 286.008,136.082 286.770,137.117 287.712 M261.800 288.302 C 260.480 289.548,259.760 290.311,260.200 289.996 C 261.464 289.093,264.796 285.998,264.483 286.018 C 264.327 286.028,263.120 287.056,261.800 288.302 M217.087 287.768 C 214.869 289.304,214.045 290.102,215.800 289.015 C 218.273 287.483,219.773 286.401,219.393 286.422 C 219.177 286.434,218.139 287.040,217.087 287.768 M211.281 291.372 C 209.321 292.758,209.185 293.065,211.000 292.005 C 212.878 290.910,213.525 290.391,212.980 290.420 C 212.771 290.430,212.007 290.859,211.281 291.372 M256.600 292.690 C 254.455 294.679,255.221 294.276,257.701 292.111 C 258.527 291.390,259.067 290.808,258.901 290.818 C 258.736 290.828,257.700 291.670,256.600 292.690 M142.364 292.135 C 142.949 292.863,145.200 294.577,145.200 294.294 C 145.200 294.206,144.435 293.526,143.500 292.783 C 142.565 292.040,142.054 291.748,142.364 292.135 M207.600 293.636 C 206.936 294.179,206.869 294.315,207.400 294.040 C 208.705 293.366,209.428 292.812,209.000 292.815 C 208.780 292.817,208.150 293.186,207.600 293.636 M204.800 295.236 C 204.136 295.779,204.069 295.915,204.600 295.640 C 205.905 294.966,206.628 294.412,206.200 294.415 C 205.980 294.417,205.350 294.786,204.800 295.236 M146.364 295.335 C 146.949 296.063,149.200 297.777,149.200 297.494 C 149.200 297.406,148.435 296.726,147.500 295.983 C 146.565 295.240,146.054 294.948,146.364 295.335 M252.200 296.260 C 250.995 297.336,250.905 297.485,251.836 296.863 C 252.941 296.124,254.332 294.776,253.949 294.815 C 253.867 294.823,253.080 295.473,252.200 296.260 M248.800 298.849 C 247.406 300.071,247.405 300.072,248.688 299.219 C 249.396 298.748,250.082 298.191,250.212 297.981 C 250.597 297.357,250.277 297.554,248.800 298.849 M150.000 298.123 C 150.000 298.312,154.435 301.610,157.300 303.551 C 158.345 304.259,159.200 304.745,159.200 304.631 C 159.200 304.518,157.895 303.522,156.300 302.418 C 154.705 301.315,152.635 299.859,151.700 299.184 C 150.765 298.509,150.000 298.031,150.000 298.123 M239.803 305.025 C 237.385 306.661,235.546 308.000,235.716 308.000 C 236.106 308.000,244.400 302.451,244.400 302.191 C 244.400 301.907,244.528 301.828,239.803 305.025 M159.600 304.901 C 159.600 305.076,160.405 305.641,163.700 307.778 C 164.305 308.171,164.800 308.405,164.800 308.299 C 164.800 308.124,163.995 307.559,160.700 305.422 C 160.095 305.029,159.600 304.795,159.600 304.901 M167.200 309.701 C 167.200 309.955,170.296 312.000,170.680 312.000 C 170.844 312.000,170.623 311.758,170.189 311.461 C 168.281 310.159,167.200 309.522,167.200 309.701 M230.200 311.200 C 229.540 311.637,229.180 311.992,229.400 311.988 C 229.801 311.982,231.976 310.423,231.600 310.412 C 231.490 310.408,230.860 310.763,230.200 311.200 M173.200 313.564 C 173.750 314.014,174.380 314.383,174.600 314.385 C 175.028 314.388,174.305 313.834,173.000 313.160 C 172.469 312.885,172.536 313.021,173.200 313.564 M176.000 315.164 C 176.550 315.614,177.180 315.983,177.400 315.985 C 177.828 315.988,177.105 315.434,175.800 314.760 C 175.269 314.485,175.336 314.621,176.000 315.164 M178.800 316.764 C 179.350 317.214,179.980 317.583,180.200 317.585 C 180.628 317.588,179.905 317.034,178.600 316.360 C 178.069 316.085,178.136 316.221,178.800 316.764 M219.908 317.097 C 218.867 317.676,218.081 318.214,218.161 318.294 C 218.323 318.456,221.188 316.927,221.780 316.362 C 222.375 315.795,221.949 315.962,219.908 317.097 M181.600 318.364 C 182.150 318.814,182.780 319.183,183.000 319.185 C 183.428 319.188,182.705 318.634,181.400 317.960 C 180.869 317.685,180.936 317.821,181.600 318.364 M216.200 319.200 C 215.540 319.637,215.180 319.992,215.400 319.988 C 215.801 319.982,217.976 318.423,217.600 318.412 C 217.490 318.408,216.860 318.763,216.200 319.200 M187.811 321.734 C 188.696 322.332,190.000 322.858,190.000 322.617 C 190.000 322.437,187.598 321.200,187.250 321.200 C 187.124 321.200,187.377 321.440,187.811 321.734 M193.200 324.183 C 193.200 324.424,195.663 325.600,196.161 325.598 C 196.403 325.596,196.150 325.362,195.600 325.076 C 194.272 324.387,193.200 323.988,193.200 324.183 M197.159 326.121 C 197.336 326.297,198.633 326.385,200.041 326.316 L 202.600 326.191 199.718 325.995 C 198.133 325.888,196.981 325.944,197.159 326.121 " stroke="none" fill="#ecf4fc" fill-rule="evenodd"></path></g></svg>