<svg xmlns="http://www.w3.org/2000/svg" width="400" height="400"><g fill-rule="evenodd"><path d="M110 156.536v155.736l2.3 2.364 10.213 10.502c4.754 4.888 8.127 8.056 8.447 7.933.524-.201 5.617 4.826 22.759 22.467 4.751 4.889 8.121 8.056 8.441 7.933.523-.201 5.487 4.698 22.759 22.458 4.348 4.471 8.125 8.047 8.393 7.946.269-.1 1.793 1.097 3.388 2.661l2.9 2.844V87.901l-13.3-13.629c-19.968-20.462-23.105-23.556-23.672-23.338-.506.194-7.763-7-31.95-31.671-6.864-7.001-11.72-11.656-12.035-11.535-.302.116-2.052-1.327-4.077-3.363C112.614 2.404 110.788.8 110.508.8c-.41 0-.508 30.051-.508 155.736" fill="#fc041c"/><path d="M285.392 4.816c-2.857 2.874-4.201 3.963-4.725 3.829-.686-.175-8.322 6.921-9.316 8.657-1.124 1.962-34.012 34.723-34.682 34.548-.691-.181-8.331 6.919-9.318 8.657-.193.341-6.336 6.687-13.651 14.104l-13.3 13.485v310.885l3.165-3.146c2.22-2.207 3.36-3.073 3.815-2.898.616.237 5.138-3.813 6.065-5.432 1.123-1.961 24.418-25.129 25.091-24.953.697.182 5.169-3.804 6.109-5.447 1.123-1.961 24.418-25.129 25.091-24.953.701.183 5.187-3.823 6.109-5.456.564-.999 13.345-13.896 13.771-13.896.245 0 .384-56.522.384-156 0-85.8-.138-156-.308-156-.169 0-2.104 1.807-4.3 4.016" fill="#c40c0c"/><path d="M110 .4c0 .22.229.4.508.4.28 0 2.112 1.611 4.072 3.58 1.959 1.968 3.73 3.476 3.934 3.35.527-.326-6.95-7.73-7.806-7.73-.389 0-.708.18-.708.4m174.4 3.8c-2.302 2.31-4.005 4.2-3.785 4.2.22 0 2.107-1.726 4.193-3.835C286.894 2.456 288.96.578 289.4.391c.797-.339.797-.34-.007-.366-.512-.016-2.339 1.512-4.993 4.175M129.207 17.402c.013.703 33.031 33.984 33.294 33.559.139-.226-7.297-7.958-16.524-17.184-9.227-9.225-16.774-16.594-16.77-16.375m124.177 17.014c-9.449 9.451-17.009 17.184-16.8 17.184.427 0 34.331-34.018 34.117-34.232-.075-.075-7.867 7.596-17.317 17.048M173.2 60.552c0 .191 5.94 6.422 13.2 13.848l13.2 13.501V399.38l-2.921-2.902c-1.607-1.596-3.053-2.771-3.212-2.611-.16.159 1.015 1.605 2.611 3.212 3.834 3.86 4.016 3.849 8.322-.479 1.86-1.87 3.202-3.4 2.982-3.4-.221 0-1.823 1.431-3.562 3.18-1.739 1.749-3.31 3.088-3.491 2.976-.747-.461-.391-311.089.357-312.158.378-.539 6.408-6.697 13.4-13.684 6.993-6.988 12.714-12.841 12.714-13.007 0-.166-6.03 5.725-13.4 13.093L200 86.996 186.6 73.6c-7.37-7.368-13.4-13.239-13.4-13.048M110 313.104c0 .168 3.06 3.361 6.8 7.096 8.638 8.627 8.823 8.24.3-.628-6.058-6.304-7.1-7.253-7.1-6.468m172.865 6.76c-3.594 3.63-6.465 6.669-6.381 6.753.085.085 3.203-2.899 6.93-6.631 3.728-3.733 6.599-6.771 6.382-6.754-.218.018-3.337 3.002-6.931 6.632m-25.584 24.791c-6.666 6.732-12.058 12.301-11.983 12.377.076.075 5.709-5.436 12.517-12.247 6.809-6.812 12.201-12.382 11.983-12.377-.219.004-5.852 5.515-12.517 12.247M131.099 333.04c-.14.226 5.136 5.798 11.724 12.383 6.587 6.584 11.974 11.793 11.971 11.574-.011-.702-23.432-24.382-23.695-23.957m94.982 42.015c-6.666 6.732-12.058 12.301-11.983 12.377.076.075 5.709-5.436 12.517-12.247 6.809-6.812 12.201-12.382 11.983-12.377-.219.004-5.852 5.515-12.517 12.247m-63.783-11.614c-.139.225 5.317 5.977 12.125 12.782 6.807 6.805 12.373 12.193 12.369 11.975-.015-.704-24.232-25.181-24.494-24.757" fill="#e40414"/><path d="M284.763 4.605c-2.33 2.307-4.05 4.195-3.822 4.195.229 0 2.333-1.89 4.677-4.2 2.344-2.31 4.064-4.198 3.822-4.195-.242.002-2.346 1.892-4.677 4.2m-30.986 30.018C244.305 44.181 236.755 52 237 52c.437 0 33.871-33.736 34.133-34.441.258-.693-.268-.176-17.356 17.064m-39.922 39.14c-7.23 7.28-13.302 13.507-13.494 13.837-.435.748-.482 311.478-.048 311.746.173.107 1.857-1.323 3.745-3.176 1.887-1.854 3.235-3.37 2.995-3.37-.239 0-1.834 1.391-3.544 3.091l-3.109 3.09V88.094l6.244-6.347a4820.52 4820.52 0 0 1 13.481-13.632c3.981-4.007 7.156-7.354 7.056-7.437-.099-.084-6.096 5.805-13.326 13.085M282.6 319.469c-3.52 3.625-6.471 6.791-6.558 7.035-.087.244 1.443-1.166 3.4-3.134 1.957-1.969 5.136-5.152 7.064-7.074 1.928-1.923 3.278-3.478 3-3.457-.278.022-3.386 3.005-6.906 6.63m-25.619 24.772c-6.59 6.733-12.049 12.428-12.133 12.655-.083.228 2.707-2.444 6.2-5.937C263.785 338.224 269.806 332 269.388 332c-.235 0-5.818 5.509-12.407 12.241m-31.2 30.4c-6.59 6.733-12.049 12.428-12.133 12.655-.083.228 2.707-2.444 6.2-5.937 12.737-12.735 18.758-18.959 18.34-18.959-.235 0-5.818 5.509-12.407 12.241" fill="#d40814"/></g></svg>