<svg id="svg" version="1.1" xmlns="http://www.w3.org/2000/svg" xmlns:xlink="http://www.w3.org/1999/xlink" width="400" height="400" viewBox="0, 0, 400,400"><g id="svgg"><path id="path0" d="M110.000 156.536 L 110.000 312.272 112.300 314.636 C 113.565 315.936,118.161 320.662,122.513 325.138 C 127.267 330.026,130.640 333.194,130.960 333.071 C 131.484 332.870,136.577 337.897,153.719 355.538 C 158.470 360.427,161.840 363.594,162.160 363.471 C 162.683 363.270,167.647 368.169,184.919 385.929 C 189.267 390.400,193.044 393.976,193.312 393.875 C 193.581 393.775,195.105 394.972,196.700 396.536 L 199.600 399.380 199.600 243.641 L 199.600 87.901 186.300 74.272 C 166.332 53.810,163.195 50.716,162.628 50.934 C 162.122 51.128,154.865 43.934,130.678 19.263 C 123.814 12.262,118.958 7.607,118.643 7.728 C 118.341 7.844,116.591 6.401,114.566 4.365 C 112.614 2.404,110.788 0.800,110.508 0.800 C 110.098 0.800,110.000 30.851,110.000 156.536 " stroke="none" fill="#fc041c" fill-rule="evenodd"></path><path id="path1" d="M285.392 4.816 C 282.535 7.690,281.191 8.779,280.667 8.645 C 279.981 8.470,272.345 15.566,271.351 17.302 C 270.227 19.264,237.339 52.025,236.669 51.850 C 235.978 51.669,228.338 58.769,227.351 60.507 C 227.158 60.848,221.015 67.194,213.700 74.611 L 200.400 88.096 200.400 243.539 L 200.400 398.981 203.565 395.835 C 205.785 393.628,206.925 392.762,207.380 392.937 C 207.996 393.174,212.518 389.124,213.445 387.505 C 214.568 385.544,237.863 362.376,238.536 362.552 C 239.233 362.734,243.705 358.748,244.645 357.105 C 245.768 355.144,269.063 331.976,269.736 332.152 C 270.437 332.335,274.923 328.329,275.845 326.696 C 276.409 325.697,289.190 312.800,289.616 312.800 C 289.861 312.800,290.000 256.278,290.000 156.800 C 290.000 71.000,289.862 0.800,289.692 0.800 C 289.523 0.800,287.588 2.607,285.392 4.816 " stroke="none" fill="#c40c0c" fill-rule="evenodd"></path><path id="path2" d="M110.000 0.400 C 110.000 0.620,110.229 0.800,110.508 0.800 C 110.788 0.800,112.620 2.411,114.580 4.380 C 116.539 6.348,118.310 7.856,118.514 7.730 C 119.041 7.404,111.564 -0.000,110.708 -0.000 C 110.319 -0.000,110.000 0.180,110.000 0.400 M284.400 4.200 C 282.098 6.510,280.395 8.400,280.615 8.400 C 280.835 8.400,282.722 6.674,284.808 4.565 C 286.894 2.456,288.960 0.578,289.400 0.391 C 290.197 0.052,290.197 0.051,289.393 0.025 C 288.881 0.009,287.054 1.537,284.400 4.200 M129.207 17.402 C 129.220 18.105,162.238 51.386,162.501 50.961 C 162.640 50.735,155.204 43.003,145.977 33.777 C 136.750 24.552,129.203 17.183,129.207 17.402 M253.384 34.416 C 243.935 43.867,236.375 51.600,236.584 51.600 C 237.011 51.600,270.915 17.582,270.701 17.368 C 270.626 17.293,262.834 24.964,253.384 34.416 M173.200 60.552 C 173.200 60.743,179.140 66.974,186.400 74.400 L 199.600 87.901 199.600 243.641 L 199.600 399.380 196.679 396.478 C 195.072 394.882,193.626 393.707,193.467 393.867 C 193.307 394.026,194.482 395.472,196.078 397.079 C 199.912 400.939,200.094 400.928,204.400 396.600 C 206.260 394.730,207.602 393.200,207.382 393.200 C 207.161 393.200,205.559 394.631,203.820 396.380 C 202.081 398.129,200.510 399.468,200.329 399.356 C 199.582 398.895,199.938 88.267,200.686 87.198 C 201.064 86.659,207.094 80.501,214.086 73.514 C 221.079 66.526,226.800 60.673,226.800 60.507 C 226.800 60.341,220.770 66.232,213.400 73.600 L 200.000 86.996 186.600 73.600 C 179.230 66.232,173.200 60.361,173.200 60.552 M110.000 313.104 C 110.000 313.272,113.060 316.465,116.800 320.200 C 125.438 328.827,125.623 328.440,117.100 319.572 C 111.042 313.268,110.000 312.319,110.000 313.104 M282.865 319.864 C 279.271 323.494,276.400 326.533,276.484 326.617 C 276.569 326.702,279.687 323.718,283.414 319.986 C 287.142 316.253,290.013 313.215,289.796 313.232 C 289.578 313.250,286.459 316.234,282.865 319.864 M257.281 344.655 C 250.615 351.387,245.223 356.956,245.298 357.032 C 245.374 357.107,251.007 351.596,257.815 344.785 C 264.624 337.973,270.016 332.403,269.798 332.408 C 269.579 332.412,263.946 337.923,257.281 344.655 M131.099 333.040 C 130.959 333.266,136.235 338.838,142.823 345.423 C 149.410 352.007,154.797 357.216,154.794 356.997 C 154.783 356.295,131.362 332.615,131.099 333.040 M226.081 375.055 C 219.415 381.787,214.023 387.356,214.098 387.432 C 214.174 387.507,219.807 381.996,226.615 375.185 C 233.424 368.373,238.816 362.803,238.598 362.808 C 238.379 362.812,232.746 368.323,226.081 375.055 M162.298 363.441 C 162.159 363.666,167.615 369.418,174.423 376.223 C 181.230 383.028,186.796 388.416,186.792 388.198 C 186.777 387.494,162.560 363.017,162.298 363.441 " stroke="none" fill="#e40414" fill-rule="evenodd"></path><path id="path3" d="M284.763 4.605 C 282.433 6.912,280.713 8.800,280.941 8.800 C 281.170 8.800,283.274 6.910,285.618 4.600 C 287.962 2.290,289.682 0.402,289.440 0.405 C 289.198 0.407,287.094 2.297,284.763 4.605 M253.777 34.623 C 244.305 44.181,236.755 52.000,237.000 52.000 C 237.437 52.000,270.871 18.264,271.133 17.559 C 271.391 16.866,270.865 17.383,253.777 34.623 M213.855 73.763 C 206.625 81.043,200.553 87.270,200.361 87.600 C 199.926 88.348,199.879 399.078,200.313 399.346 C 200.486 399.453,202.170 398.023,204.058 396.170 C 205.945 394.316,207.293 392.800,207.053 392.800 C 206.814 392.800,205.219 394.191,203.509 395.891 L 200.400 398.981 200.400 243.538 L 200.400 88.094 206.644 81.747 C 210.078 78.256,216.145 72.122,220.125 68.115 C 224.106 64.108,227.281 60.761,227.181 60.678 C 227.082 60.594,221.085 66.483,213.855 73.763 M282.600 319.469 C 279.080 323.094,276.129 326.260,276.042 326.504 C 275.955 326.748,277.485 325.338,279.442 323.370 C 281.399 321.401,284.578 318.218,286.506 316.296 C 288.434 314.373,289.784 312.818,289.506 312.839 C 289.228 312.861,286.120 315.844,282.600 319.469 M256.981 344.241 C 250.391 350.974,244.932 356.669,244.848 356.896 C 244.765 357.124,247.555 354.452,251.048 350.959 C 263.785 338.224,269.806 332.000,269.388 332.000 C 269.153 332.000,263.570 337.509,256.981 344.241 M225.781 374.641 C 219.191 381.374,213.732 387.069,213.648 387.296 C 213.565 387.524,216.355 384.852,219.848 381.359 C 232.585 368.624,238.606 362.400,238.188 362.400 C 237.953 362.400,232.370 367.909,225.781 374.641 " stroke="none" fill="#d40814" fill-rule="evenodd"></path><path id="path4" d="" stroke="none" fill="#c40818" fill-rule="evenodd"></path><path id="path5" d="" stroke="none" fill="#c4100c" fill-rule="evenodd"></path></g></svg>