<svg xmlns="http://www.w3.org/2000/svg" width="400" height="400"><g fill-rule="evenodd"><path d="M199.754 22.576c-.132.343-.507.624-.834.624-.327 0-.689.36-.804.8-.115.44-.458.8-.763.8-.304 0-.553.27-.553.6 0 .33.27.6.6.6.33 0 .6-.27.6-.6 0-.333.356-.6.8-.6.444 0 .8-.267.8-.6 0-.446.47-.6 1.829-.6 1.526 0 1.808-.116 1.697-.7-.181-.955-3.025-1.229-3.372-.324m4.646 1.41c0 .547.262.814.8.814.444 0 .8.267.8.6 0 .33.27.6.6.6.33 0 .6-.27.6-.6 0-.33-.27-.6-.6-.6-.33 0-.6-.174-.6-.386 0-.212-.36-.579-.8-.814-.678-.363-.8-.304-.8.386m-10.7 2.977c-1.04 1.097-1.161 1.837-.3 1.837.33 0 .6-.27.6-.6 0-.333.356-.6.8-.6.533 0 .8-.267.8-.8 0-1.069-.797-1-1.9.163m16.3 1.05c0 .433.27.787.6.787.33 0 .6.27.6.6 0 .33.354.6.787.6.536 0 .714-.192.558-.6-.127-.33-.481-.6-.788-.6a.56.56 0 0 1-.557-.557c0-.307-.27-.661-.6-.788-.408-.156-.6.022-.6.558m-21.2 2.54c0 .305-.36.648-.8.763-.44.115-.8.496-.8.847 0 .37.335.637.8.637.44 0 .8-.249.8-.553 0-.305.361-.648.802-.763.534-.14.72-.422.557-.847-.3-.782-1.359-.847-1.359-.084m25 .247c-.136.22.123.4.576.4.557 0 .824.259.824.8 0 .547.267.8.843.8.585 0 .772.184.612.6-.156.408.022.6.558.6 1.134 0 .991-.334-.88-2.061-1.754-1.62-2.131-1.79-2.533-1.139m-29.006 2.811c-.239.446-.605.706-.815.576-.209-.129-.556.226-.77.789-.214.563-.584 1.024-.823 1.024-.238 0-.322.18-.186.4.374.605 1 .479 1-.2 0-.333.356-.6.8-.6.517 0 .8-.267.8-.753 0-.429.362-.848.84-.973.463-.121.722-.412.577-.647-.406-.656-.944-.51-1.423.384M219.2 34.8c0 .444.267.8.6.8.33 0 .6.27.6.6 0 .34.359.6.829.6.582 0 .784-.209.677-.7-.085-.385-.362-.657-.618-.604-.255.053-.656-.262-.89-.7-.549-1.025-1.198-1.023-1.198.004m-39.745 2.6c-.126.33-.506.6-.842.6-.346 0-.613.348-.613.8 0 .533.267.8.8.8s.8-.267.8-.8c0-.444.267-.8.6-.8.33 0 .6-.27.6-.6 0-.33-.251-.6-.557-.6-.307 0-.661.27-.788.6m42.755-.216c-.339.549-.039.961.552.758.242-.084.273-.366.075-.685-.25-.402-.412-.421-.627-.073m2.465 1.074c-.566.567-.246 1.342.554 1.342.56 0 .788-.217.7-.667-.142-.736-.825-1.103-1.254-.675m1.825 1.207c-.703.284-.625 1.335.1 1.335.333 0 .6-.356.6-.8 0-.44-.045-.786-.1-.768-.055.017-.325.122-.6.233m-50.9.735c0 .341-.359.6-.833.6-.975 0-.837.935.166 1.129.395.077.667-.127.667-.5 0-.346.27-.629.6-.629.33 0 .6-.27.6-.6 0-.33-.27-.6-.6-.6-.33 0-.6.27-.6.6m-2.3 2.065c-.703.284-.625 1.335.1 1.335.333 0 .6-.356.6-.8 0-.44-.045-.786-.1-.768-.055.017-.325.122-.6.233m56.7.548c0 .433.27.787.6.787.33 0 .6.283.6.629 0 .373.272.577.667.5 1.011-.196 1.13-1.152.175-1.402-.463-.121-.842-.36-.842-.531 0-.171-.27-.414-.6-.541-.408-.156-.6.022-.6.558m-59.5.652c-.275.111-.5.457-.5.768 0 .312-.27.567-.6.567-.33 0-.6.27-.6.6 0 .33.27.6.6.6.33 0 .6-.27.6-.6 0-.33.339-.6.753-.6.417 0 .847-.357.963-.8.206-.787-.176-.955-1.216-.535M234 45.4c0 .33.27.6.6.6.33 0 .6.348.6.773 0 .592.269.766 1.145.741 1.193-.034.614-1.514-.591-1.514-.258 0-.572-.27-.699-.6-.126-.33-.416-.6-.642-.6-.227 0-.413.27-.413.6m-67.011 1.018c-.147.237-.699.596-1.228.797-.528.201-.961.64-.961.975 0 .343-.35.61-.8.61-.444 0-.8.267-.8.6 0 .333.356.6.8.6.444 0 .8-.267.8-.6 0-.333.356-.6.8-.6.533 0 .8-.267.8-.8 0-.44.259-.8.576-.8.72 0 1.167-.665.658-.979-.208-.129-.499-.04-.645.197M239.2 49.4c0 .33.249.6.553.6.305 0 .648.36.763.8.244.933 1.484 1.09 1.484.187 0-.336-.315-.728-.7-.869-.385-.142-.844-.496-1.02-.788-.431-.714-1.08-.672-1.08.07m-78.144.878c-.478.478-.258 1.322.344 1.322.33 0 .6-.259.6-.576 0-.669-.571-1.12-.944-.746m-1.589 1.189c-.368.367.195 1.333.776 1.333.726 0 .723-1.051-.004-1.33-.308-.118-.656-.12-.772-.003m83.733.733c0 .33.27.6.6.6.33 0 .6.27.6.6 0 .333.356.6.8.6.444 0 .8.267.8.6 0 .33.27.6.6.6.33 0 .6-.186.6-.413 0-.226-.27-.516-.6-.642-.33-.127-.6-.481-.6-.788 0-.306-.36-.557-.8-.557-.444 0-.8-.267-.8-.6 0-.33-.27-.6-.6-.6-.33 0-.6.27-.6.6m-88.3 2.856c-1.126 1.216-1.142 1.744-.053 1.744.63 0 .796-.191.65-.749-.15-.577-.023-.704.554-.554.558.146.749-.02.749-.65 0-1.098-.768-1.013-1.9.209m93.384.944c.116.443.546.8.963.8.414 0 .753.27.753.6 0 .33.27.6.6.6.912 0 .717-1.076-.24-1.326-.462-.121-.733-.393-.603-.605.131-.212-.045-.494-.392-.627-1.054-.405-1.3-.278-1.081.558M151.6 57.4c0 .33-.339.6-.753.6-.429 0-.848.362-.973.84-.121.462-.388.737-.594.61-.205-.127-.695.125-1.089.559-.393.435-1.047.791-1.453.791-.406 0-.738.251-.738.557 0 .307-.27.661-.6.788-.33.126-.6.506-.6.842 0 .337.27.613.6.613.333 0 .6-.356.6-.8 0-.533.267-.8.8-.8.444 0 .8-.267.8-.6 0-.514.997-.822 2.1-.647.165.026.255-.174.2-.444-.055-.269.305-.552.8-.627.575-.088.9-.416.9-.91 0-.425.27-.772.6-.772.33 0 .6-.27.6-.6 0-.33-.27-.6-.6-.6-.33 0-.6.27-.6.6m102.294 2.039c-.389.389.145 1.361.749 1.361.306 0 .557.27.557.6 0 .359.361.595.9.587l.9-.014-.819-.686c-.451-.378-.941-1.002-1.088-1.387-.271-.709-.762-.897-1.199-.461M258 62.846c0 .456.211.75.475.662.741-.247.825-.984.142-1.246-.432-.166-.617.009-.617.584M259.2 64c0 .533.267.8.8.8.444 0 .8.267.8.6 0 .33.18.6.4.6.651 0 .46-.725-.472-1.797-1.053-1.211-1.528-1.274-1.528-.203m-117.6.8c-.55.631-1.206 1.16-1.457 1.174-.531.03-1.001 1.035-.649 1.387.527.527 1.306.192 1.306-.561 0-.444.267-.8.6-.8.33 0 .6-.27.6-.6 0-.333.356-.6.8-.6.444 0 .8-.267.8-.6 0-.933-.9-.663-2 .6m121.6 2c0 .444.267.8.6.8.33 0 .6.27.6.6 0 .333.356.6.8.6.989 0 1.065-1.128.1-1.482-.385-.142-.844-.496-1.02-.788-.477-.791-1.08-.64-1.08.27m-126.28 1.33c-.176.292-.635.646-1.02.788-.954.35-.886 1.082.1 1.082.444 0 .8-.267.8-.6 0-.33.27-.6.6-.6.33 0 .6-.27.6-.6 0-.742-.649-.784-1.08-.07M268.4 70.8c0 .533.267.8.8.8.444 0 .8.267.8.6 0 .33.27.6.6.6.339 0 .6-.358.6-.824 0-.453-.171-.718-.38-.588-.209.129-.575-.131-.814-.577-.558-1.043-1.606-1.05-1.606-.011m-137.286 1.548c-1.071 1.135-1.086 1.652-.047 1.652.293 0 .533-.27.533-.6 0-.33.249-.6.553-.6.305 0 .648-.36.763-.8.302-1.154-.538-.992-1.802.348M272.4 73.4c0 .333.356.6.8.6.533 0 .8.267.8.8 0 .444.267.8.6.8.33 0 .6.27.6.6 0 .33.27.6.6.6.33 0 .6-.251.6-.557 0-.307-.27-.661-.6-.788-.33-.126-.6-.506-.6-.842 0-.337-.251-.613-.557-.613-.307 0-.661-.27-.788-.6-.126-.33-.506-.6-.842-.6a.608.608 0 0 0-.613.6m-144.8 1.153c0 .305-.36.648-.8.763-.44.115-.8.496-.8.847 0 .37.335.637.8.637.444 0 .8-.267.8-.6 0-.33.27-.6.6-.6.333 0 .6-.356.6-.8 0-.444-.267-.8-.6-.8-.33 0-.6.249-.6.553M278 77.4c0 .33.27.6.6.6.332 0 .6.355.6.796 0 .597.242.775.969.715 1.095-.091.735-1.511-.383-1.511a.595.595 0 0 1-.586-.6c0-.33-.27-.6-.6-.6-.33 0-.6.27-.6.6m-156.126 1.44c-.121.463-.412.722-.647.577-.25-.155-.427.078-.427.559 0 .466.261.824.6.824.33 0 .6-.27.6-.6 0-.333.356-.6.8-.6.533 0 .8-.267.8-.8 0-1.095-1.438-1.062-1.726.04m160.018 1.19c.111.423.45.77.755.77.304 0 .553.27.553.6 0 .33.258.6.573.6.315 0 .687.36.827.8.276.87.805 1.04 1.207.388.3-.486-1.378-2.371-2.12-2.381-.281-.004-.61-.263-.73-.576-.354-.921-1.3-1.099-1.065-.201M117.7 81.763c-1.04 1.097-1.161 1.837-.3 1.837.333 0 .6-.356.6-.8 0-.533.267-.8.8-.8.444 0 .8-.267.8-.6 0-.885-.875-.718-1.9.363m-2.582 2.274c-.16.415.06.62.727.675.525.043.955-.118.955-.359s-.258-.339-.574-.218c-.316.121-.643.014-.727-.237-.095-.286-.238-.233-.381.139M287.2 84.2c0 .33.27.6.6.6.33 0 .6.27.6.6 0 .333.356.6.8.6.444 0 .8.267.8.6 0 .601.469.798.891.375.299-.299-1.458-2.175-2.037-2.175-.25 0-.454-.27-.454-.6 0-.33-.27-.6-.6-.6-.33 0-.6.27-.6.6m-174.4 1.2c0 .33-.27.6-.6.6-.333 0-.6.356-.6.8 0 .444.267.8.6.8.333 0 .6-.356.6-.8 0-.529.267-.8.787-.8.536 0 .714-.192.558-.6-.127-.33-.481-.6-.788-.6-.306 0-.557.27-.557.6m-3.531 2.531c-.401.401-1.031.846-1.4.987-.927.356-.84 1.082.131 1.082.444 0 .8-.267.8-.6 0-.33.249-.6.553-.6.305 0 .648-.36.763-.8.259-.99.088-1.004-.847-.069M292.4 88c0 .533.267.8.8.8.444 0 .8.267.8.6 0 .33.27.6.6.6.33 0 .6-.27.6-.6 0-.33-.264-.6-.586-.6-.322 0-.779-.36-1.014-.8-.235-.44-.602-.8-.814-.8-.212 0-.386.36-.386.8m-186.216 2.427c-.369.595.058.919.824.625.354-.135.531-.428.394-.649-.324-.525-.886-.514-1.218.024m190.311.274c.084.385.382.649.663.588.281-.062.606.253.723.7.117.446.461.811.766.811.304 0 .553.27.553.6 0 .333.356.6.8.6.44 0 .8-.197.8-.437 0-.241-.36-.532-.8-.647-.44-.115-.8-.475-.8-.8 0-.325-.36-.685-.8-.8-.44-.115-.8-.349-.8-.52 0-.171-.283-.419-.629-.552-.45-.172-.586-.042-.476.457M103.707 92c-.377.44-.915.8-1.196.8-.281 0-.511.27-.511.6 0 .333.356.6.8.6.444 0 .8-.267.8-.6 0-.33.27-.6.6-.6.333 0 .6-.356.6-.8 0-.44-.092-.8-.204-.8-.112 0-.512.36-.889.8M302 94.8c0 .444.267.8.6.8.33 0 .6.27.6.6 0 .333.356.6.8.6.989 0 1.065-1.128.1-1.482-.385-.142-.844-.496-1.02-.788-.477-.791-1.08-.64-1.08.27M98.118 95.9c-.142.385-.496.844-.788 1.02-.714.431-.672 1.08.07 1.08.33 0 .6-.27.6-.6 0-.333.356-.6.8-.6.533 0 .8-.267.8-.8 0-.989-1.128-1.065-1.482-.1m-4.347 3.007c-.456.491-.944 1.205-1.085 1.586-.141.382-.503.599-.804.483-.311-.119-.549.044-.549.377 0 .323.318.563.706.534.388-.029.61-.208.493-.397-.117-.189.166-.443.628-.564.462-.12.84-.468.84-.773 0-.304.373-.553.829-.553.56 0 .788-.217.7-.667-.195-1.009-.836-1.018-1.758-.026M307.2 98.8c0 .44.24.8.533.8.753 0 1.048-.385.797-1.039-.327-.851-1.33-.671-1.33.239m1.475.658c-.566.567-.246 1.342.554 1.342.56 0 .788-.217.7-.667-.142-.736-.825-1.103-1.254-.675m2.525 1.942c0 .33.27.6.6.6.333 0 .6.356.6.8 0 .533.267.8.8.8.444 0 .8.267.8.6 0 .33.27.6.6.6.333 0 .6-.356.6-.8 0-.444-.267-.8-.6-.8-.33 0-.6-.281-.6-.624 0-.343-.157-.526-.348-.408-.192.119-.76-.141-1.262-.576-1.095-.95-1.19-.966-1.19-.192m-222.4 1.153c0 .305-.36.648-.8.763-.44.115-.8.496-.8.847 0 .37.335.637.8.637.444 0 .8-.267.8-.6 0-.33.27-.6.6-.6.333 0 .6-.356.6-.8 0-.444-.267-.8-.6-.8-.33 0-.6.249-.6.553m-3.88 2.777c-.176.292-.632.645-1.013.785-.42.154-.601.497-.457.87.342.893 1.35.755 1.35-.185 0-.444.267-.8.6-.8.33 0 .6-.27.6-.6 0-.742-.649-.784-1.08-.07m231.48.07c0 .333.356.6.8.6.533 0 .8.267.8.8 0 .444.267.8.6.8.885 0 .718-.875-.363-1.9-1.097-1.04-1.837-1.161-1.837-.3m-234.27 2.063c.145.145.063.505-.182.8-.349.421-.262.537.403.537.582 0 .849-.251.849-.8 0-.48-.267-.8-.667-.8-.366 0-.548.118-.403.263m237.07.937c0 .22.259.4.576.4.317 0 .688-.18.824-.4.136-.22-.123-.4-.576-.4-.453 0-.824.18-.824.4m-240.1 1.329c-1.294 1.06-1.424 1.871-.3 1.871.533 0 .8-.267.8-.8 0-.444.267-.8.6-.8.33 0 .6-.27.6-.6 0-.813-.399-.736-1.7.329M322 109.4c0 .33.27.6.6.6.333 0 .6.356.6.8 0 .444.267.8.6.8.333 0 .6-.356.6-.8 0-.444-.267-.8-.6-.8-.33 0-.6-.27-.6-.6 0-.33-.27-.6-.6-.6-.33 0-.6.27-.6.6m3.708 2.63c-.039.515.198.77.717.77.426 0 .775.27.775.6 0 .339.358.6.824.6.453 0 .734.144.626.319-.4.648.478 1.513 1.003.988.494-.494-1.171-2.507-2.074-2.507a.384.384 0 0 1-.379-.386c0-.829-1.431-1.197-1.492-.384M75.6 112.2c0 .33-.172.6-.382.6-.496 0-2.418 1.922-2.418 2.418 0 .21.27.382.6.382.333 0 .6-.356.6-.8 0-.533.267-.8.8-.8.44 0 .8-.249.8-.553 0-.305.378-.653.84-.773.463-.121.722-.412.577-.647-.395-.639-1.417-.514-1.417.173m-3.333 5.667c-.451.451-.319 141.654.133 141.933.266.164.4-23.596.4-70.976 0-39.173-.06-71.224-.133-71.224-.074 0-.254.12-.4.267M72.8 267.52c0 .176.216.536.48.8.373.373.373.48 0 .48-.264 0-.48.5-.48 1.111s-.331 1.394-.735 1.74c-.966.828-.8 23.262.181 24.38.646.737.771 5.388.154 5.769-.859.531-.403 1.699.754 1.931 2.969.594 7.007 6.376 7.032 10.069l.014 2-2.535.12c-2.966.14-3.665-.274-3.665-2.169 0-.934-.185-1.351-.6-1.351-.496 0-.6.74-.6 4.256 0 3.584-.11 4.34-.7 4.787-.428.325-.505.537-.2.544.275.007.5.373.5.813 0 .551.267.8.855.8 1.991 0 6.22 4.411 7.379 7.697.913 2.587.172 9.103-1.035 9.103-.19 0-.459.358-.598.797-.376 1.184-4.795 4.42-6.389 4.679l-1.383.224.286 1.85c.157 1.017.252 2.66.213 3.65-.285 7.089-.576 36.555-.369 37.378.141.562.523 1.022.849 1.022.382 0 .592.398.592 1.125 0 1.261 1.788 2.875 3.184 2.875.459 0 .816.263.816.6 0 .395.395.6 1.153.6.817 0 1.215.233 1.363.8.152.583.546.8 1.447.8.833 0 1.237.196 1.237.6 0 .33.251.6.557.6.307 0 .661.27.788.6.126.33.506.6.842.6.337 0 .613.18.613.4 0 .266 39.133.4 116.6.4 77.467 0 116.6-.134 116.6-.4 0-.22.27-.4.6-.4.33 0 .6-.27.6-.6 0-.33.276-.6.613-.6.336 0 .716-.27.842-.6.127-.33.678-.6 1.225-.6.658 0 1.066-.271 1.204-.8.157-.601.546-.8 1.563-.8.936 0 1.353-.185 1.353-.6 0-.33.257-.6.571-.6.315 0 .813-.242 1.109-.537.295-.295.938-.751 1.428-1.014.766-.41.892-.806.892-2.814 0-1.589.192-2.496.6-2.835.831-.69.841-6.329.013-7.424-.879-1.162-.879-38.39 0-39.552.854-1.13.845-10.312-.011-11.022-.869-.721-.847-16.222.024-16.556.623-.24.808-2.246.207-2.246-.202 0-.716-.585-1.142-1.3-1.465-2.461-.205-6.014 1.977-5.575 2.764.555 22.386-.004 21.769-.621-.415-.415-5.437-.502-5.437-.094 0 .184-.584.167-1.297-.038-1.718-.493-11.97-.479-13.277.018-.667.254-1.026.254-1.026 0 0-.214-.225-.345-.5-.29-.327.065-.544-.524-.628-1.7-.073-1.031-.372-1.936-.7-2.12-.876-.49-.849-21.688.028-22.025.433-.166.6-.845.6-2.442 0-1.7-.139-2.213-.6-2.213-.567 0-.835-1.596-.621-3.7.068-.665-6.293-.7-128.554-.7-70.744 0-128.625.144-128.625.32m-11.5 34.745c-.275.111-.5.469-.5.796 0 .851 1.702.515 1.828-.361.1-.688-.342-.833-1.328-.435m292.872.435c.121.842 1.807 1.181 2.256.454.474-.766.064-1.154-1.216-1.154-.859 0-1.116.173-1.04.7M58.116 304c-.115.44-.372.8-.571.8-.199 0-.565.444-.812.987-.248.544-.627.879-.843.745-.217-.134-.314-.005-.217.287.298.893 1.127.904 1.127.014 0-.474.259-.833.6-.833.33 0 .6-.27.6-.6 0-.333.356-.6.8-.6.533 0 .8-.267.8-.8 0-.465-.267-.8-.637-.8-.351 0-.732.36-.847.8m47.299-.57c.723.194 2.985 4.24 2.985 5.339 0 .201.256.876.568 1.499.313.622.884 1.942 1.271 2.932.386.99.999 2.52 1.361 3.4.695 1.688 1.371 3.388 2.783 7 .473 1.21 1.02 2.56 1.216 3 .467 1.049 3.072 7.454 4.067 10a97.76 97.76 0 0 0 1.314 3.2c2.126 4.798 2.194 5.172 1.046 5.786-2.236 1.197-5.364.233-6.039-1.861-.27-.839-.626-1.705-.79-1.925-.165-.22-.428-.85-.586-1.4-.645-2.249-1.602-4-2.188-4.005-12.287-.092-18.163-.008-18.41.264-.17.188-1.082 2.273-2.026 4.635-1.898 4.744-2.399 5.133-5.875 4.569-2.322-.377-2.148-1.802 1.086-8.863.201-.44.832-1.97 1.402-3.4s1.186-2.96 1.37-3.4c.184-.44.658-1.61 1.053-2.6.395-.99 1.015-2.52 1.377-3.4.362-.88.98-2.41 1.373-3.4a85.1 85.1 0 0 1 1.471-3.444c.416-.904.756-1.903.756-2.22 0-.317.144-.747.32-.956.176-.209.742-1.46 1.258-2.78.516-1.32 1.272-3.155 1.68-4.078.408-.923.742-1.868.742-2.1 0-1.516 2.887-2.471 5.415-1.792m44.356.399c.914.914.814 3.586-.171 4.571-.742.742-1.333.8-8.2.8-4.07 0-7.407.135-7.416.3-.14 2.68-.034 11.383.141 11.558.13.13 3.476.207 7.437.17 8.287-.076 8.838.12 8.838 3.143 0 2.741-.275 2.829-8.785 2.829-8.959 0-7.911-1.308-8.002 9.993-.046 5.812-.203 8.28-.539 8.494-.674.428-3.96.373-4.674-.078-.759-.48-1.141-40.225-.4-41.609.589-1.101 20.684-1.259 21.771-.171m28.549-.149c.83.83.612 4.621-.294 5.106-.451.241-3.775.414-7.973.414-8.457 0-7.617-.717-7.612 6.49.004 6.136-.682 5.631 7.519 5.539 8.439-.095 8.84.036 8.84 2.881 0 3.123.09 3.09-8.462 3.09h-7.502l-.237 1.3c-.131.715-.184 3.55-.118 6.3l.119 5 7.6.2c8.812.232 8.6.157 8.6 3.034 0 1.978-.097 2.223-1.026 2.576-1.589.604-19.874.507-20.65-.11-.551-.438-.661-3.014-.884-20.772l-.255-20.272.896-.628c1.165-.816 20.637-.95 21.439-.148m30.149.182c.941.852.983 3.597.069 4.607-.563.622-1.305.731-4.976.731-2.373 0-4.416.164-4.54.364-.123.2-.269 8.201-.323 17.78-.11 19.341.061 18.276-2.975 18.53-3.329.279-3.099 1.564-3.324-18.559l-.2-17.915-4.716-.2c-3.596-.153-4.805-.342-5.094-.8-.541-.859-.478-4.152.09-4.72.838-.838 25.048-.669 25.989.182m8.255.038c.448.385 1.339 1.69 1.981 2.9 1.678 3.165 4.502 8.338 5.567 10.2.503.88 1.11 2.05 1.349 2.599 1.322 3.04 1.992 2.578 4.63-3.199.351-.77.763-1.49.914-1.6.249-.181 1.566-2.589 3.172-5.8.33-.66.725-1.29.878-1.4.152-.11.404-.606.559-1.102.749-2.402 2.113-3.298 5.019-3.298 3.463 0 3.642.404 1.696 3.846-2.431 4.301-3.299 5.848-4.423 7.886a167.077 167.077 0 0 1-1.866 3.29c-.44.748-1.279 2.229-1.864 3.292a289.74 289.74 0 0 1-1.967 3.509c-2.412 4.208-2.369 3.984-2.369 12.344 0 9.045-.534 9.931-4.974 8.243l-1.026-.39v-16.485l-1.406-2.468c-.774-1.357-1.584-2.737-1.801-3.067a11.78 11.78 0 0 1-.75-1.4c-.195-.44-1.203-2.231-2.239-3.979-1.036-1.749-2.046-3.549-2.243-4a11.797 11.797 0 0 0-.751-1.421c-2.354-3.607-4.42-7.738-4.206-8.413.345-1.088 4.882-1.153 6.12-.087m51.095-.394c.77.541 6.38 8.327 8.381 11.633.22.364.49.751.6.861.11.11.575.74 1.032 1.4 1.005 1.448 3.261 4.677 5.168 7.396.77 1.098 1.4 2.178 1.4 2.4 0 .222.163.404.362.404.199 0 .861.852 1.472 1.894 1.178 2.011 1.497 2.453 2.766 3.835l.8.871.105-14.965c.116-16.553.027-16.035 2.77-16.035 3.62 0 3.325-1.903 3.325 21.424v20.596l-1.026.39c-3.737 1.421-4.086 1.107-12.446-11.21-1.718-2.53-3.214-4.69-3.325-4.8-.303-.299-1.844-2.512-4.719-6.78-1.416-2.101-2.914-4.192-3.329-4.646-.415-.454-.755-1.008-.755-1.23 0-.223-.45-.827-1-1.344l-1-.939v15.189c0 11.281-.124 15.314-.48 15.67-.579.579-3.076.629-4.494.09l-1.026-.39v-20.53c0-15.434.119-20.649.48-21.01.521-.521 4.257-.652 4.939-.174m57.552.323c.376.375.629 1.317.629 2.338 0 2.881-.331 2.998-8.821 3.124l-7.379.109-.111 5.876-.11 5.876 7.778.124c8.708.139 8.301.014 8.519 2.615.261 3.126.37 3.083-8.361 3.309l-7.715.2v12.4l7.668.2c4.217.11 7.798.331 7.958.491.677.68.67 4.156-.011 4.837-.858.857-20.492 1.035-21.335.192-.692-.692-.692-41.148 0-41.84.807-.807 20.473-.67 21.291.149M54.5 307.487c-.807.29-.573 1.313.3 1.313.44 0 .8-.259.8-.576 0-.696-.423-.979-1.1-.737m8.788 1.776c.236.709 1.767.793 2.319.128.418-.503.271-.591-.991-.591-.946 0-1.427.168-1.328.463M68 309.2c0 .22.135.413.3.43.165.016.705.105 1.2.197.607.113.9-.027.9-.43 0-.397-.402-.597-1.2-.597-.66 0-1.2.18-1.2.4m287.2.187c0 .358.235.498.6.358.33-.127.6-.391.6-.588 0-.196-.27-.357-.6-.357-.33 0-.6.264-.6.587m-16.661.539c-.926.599-.673 36.074.257 36.074.793 0 .804-.236.804-17.976 0-17.178-.091-18.725-1.061-18.098m-285.487.974c-.566 2.112-.273 7.357.448 8.011.664.602.694.387.576-4.138-.116-4.511-.482-5.894-1.024-3.873m8.948-.3c0 .33-.27.6-.6.6-.476 0-.6.578-.6 2.8s.124 2.8.6 2.8c.33 0 .6.27.6.6 0 .33.27.6.6.6.333 0 .6.356.6.8 0 .935.506 1.036 1.172.234.375-.453.305-.619-.351-.827-.452-.144-.821-.519-.821-.834 0-.315-.27-.573-.6-.573-.381 0-.611-.402-.629-1.1-.016-.605-.061-1.793-.1-2.64-.051-1.107.125-1.645.629-1.914.857-.458.917-1.146.1-1.146-.33 0-.6.27-.6.6m284 17.384v17.984l-3.3.116c-4.32.152-4.296.881.034 1.033 2.169.076 3.247-.025 3.084-.287-.137-.222.118-.633.566-.913 1.098-.686 1.31-35.917.216-35.917-.524 0-.6 2.265-.6 17.984m-243.037-14.909c-.324 1.017-1.341 3.699-1.944 5.125-.279.66-.907 2.28-1.396 3.6-1.71 4.62-2.102 5.61-2.738 6.928-.927 1.92-.468 2.059 6.828 2.066 7.7.007 7.4.421 4.689-6.49a13228.91 13228.91 0 0 1-3.296-8.414c-1.305-3.339-1.778-3.96-2.143-2.815M66.5 319.487c-1.019.366-.514 1.313.7 1.313.66 0 1.2-.174 1.2-.386 0-.523-1.281-1.148-1.9-.927m3.1 1.884c0 .371.342.629.833.629.975 0 .837-.935-.166-1.129-.395-.077-.667.127-.667.5m-14.4.965c0 .184.46.545 1.023.801.562.257.911.646.776.865-.135.219.034.398.377.398.343 0 .624-.27.624-.6 0-.33-.27-.6-.6-.6-.33 0-.6-.27-.6-.6 0-.333-.356-.6-.8-.6-.44 0-.8.151-.8.336m5.914 4.138c.674.674 2.057.717 1.804.056-.112-.291-.67-.53-1.241-.53-.799 0-.928.109-.563.474m3.692 1.026c.014.677.734 1.384 1.149 1.128.74-.458.499-1.428-.355-1.428-.44 0-.797.135-.794.3m2.894 1.8c.092.275.407.5.7.5a.788.788 0 0 0 .7-.5c.099-.297-.184-.5-.7-.5s-.799.203-.7.5m2.562 1.317c.262.683.999.599 1.246-.142.088-.264-.206-.475-.662-.475-.575 0-.75.185-.584.617m2.543 3.883c.095 3.169.042 3.5-.562 3.5-.604 0-1.138.972-.749 1.361.527.527 1.306.192 1.306-.561 0-.444.267-.8.6-.8.476 0 .6-.578.6-2.8 0-2.28-.117-2.8-.629-2.8-.5 0-.616.43-.566 2.1m-13.605-.9c0 .525.267.8.775.8.529 0 .756-.254.715-.8-.036-.479-.347-.8-.775-.8-.448 0-.715.298-.715.8m-5.939 3.554c-.637.404-.477 1.708.239 1.946.328.109.5-.258.5-1.067 0-1.371.013-1.356-.739-.879m7.539.446c0 .22.27.4.6.4.333 0 .6.356.6.8 0 .85.583 1.075 1.007.389.14-.226-.165-.76-.676-1.187-1.042-.868-1.531-.997-1.531-.402m3.6 2.438c0 .682.317.762 3.029.762 2.663 0 3.013-.084 2.896-.696-.212-1.101-5.925-1.165-5.925-.066M54 341.165c0 .951 1.341.861 1.529-.103.087-.445-.142-.662-.7-.662-.55 0-.829.258-.829.765m1.467 1.102c-.407.406-.318.933.157.933.233 0 .32-.166.195-.37-.126-.203.088-.452.476-.553.56-.146.574-.194.072-.231-.349-.025-.754.074-.9.221m1.733 2.14c-.512.325-.497.382.1.387.385.003.7.276.7.606 0 .333.356.6.8.6.444 0 .8-.267.8-.6 0-.33-.345-.6-.767-.6-.421 0-.826-.174-.9-.387-.085-.247-.351-.249-.733-.006m3.6 2.193c0 .419.422.6 1.4.6s1.4-.181 1.4-.6-.422-.6-1.4-.6-1.4.181-1.4.6" fill="#faefe1"/><path d="M254.607 127.189c-.268.433-1.617 4.246-2.269 6.411-.232.77-.573 1.587-.759 1.816-.185.228-.511 1.128-.723 2a35.78 35.78 0 0 1-1.878 5.584c-.288.66-.638 1.605-.778 2.1-.422 1.495-1.235 1.621-11.204 1.74-5.278.062-9.909.189-10.291.282-.489.119.762 1.283 4.2 3.91 2.692 2.058 5.075 3.89 5.295 4.072.22.182 1.468 1.118 2.774 2.081 4.69 3.457 4.549 2.788 2.159 10.215-.212.66-.621 2.01-.909 3-.288.99-.972 3.33-1.522 5.2-1.697 5.779-1.66 6.107.498 4.383.55-.439 2.26-1.645 3.8-2.679 1.54-1.035 2.98-2.024 3.2-2.199 3.742-2.967 8.547-6.012 9.078-5.752.827.405 7.639 4.954 8.922 5.958.22.172 1.39 1.022 2.6 1.889 1.21.867 2.38 1.722 2.6 1.901.22.178 1.105.757 1.966 1.285l1.566.961-.295-.974a78.832 78.832 0 0 1-.7-2.573c-.223-.88-.572-1.96-.776-2.4-.203-.44-.621-1.7-.928-2.8-.307-1.1-.858-2.99-1.225-4.2-.366-1.21-.849-2.92-1.071-3.8-.223-.88-.607-2.017-.853-2.526-.314-.65-.323-1.127-.029-1.6.395-.638 2.678-2.46 8.345-6.66.88-.652 1.819-1.372 2.086-1.6.669-.57 1.256-1.023 3.114-2.4.88-.652 1.838-1.417 2.129-1.7.29-.282.74-.541 1-.575 1.763-.228-6.1-.653-12.8-.692l-8.071-.047-.829-1.054c-.456-.58-.83-1.345-.831-1.7-.002-.355-.255-1.129-.563-1.719-.308-.59-.684-1.637-.835-2.327-.151-.69-.527-1.737-.835-2.327-.308-.59-.561-1.34-.563-1.665-.002-.506-.724-2.57-2.032-5.808-.178-.44-.438-1.385-.578-2.1-.254-1.292-.726-1.655-1.185-.911M62.8 303.869c-.77.107-1.544.451-1.72.763-.176.312-.677.568-1.113.568-.698 0-1.793.936-3.467 2.961-.275.333-.5.975-.5 1.426 0 .451-.36 1.129-.8 1.506-.66.565-.8 1.18-.8 3.507s.14 2.942.8 3.507c.44.377.8.97.8 1.318 0 .348.225.865.5 1.15.275.285.893.948 1.372 1.472 1.318 1.44 1.961 1.896 3.065 2.173.553.139 1.102.506 1.222.816.119.31.65.564 1.179.564.53 0 1.188.27 1.462.6.274.33.911.6 1.416.6 1.317 0 2.184.403 2.184 1.016 0 .335.46.517 1.249.495.775-.022 1.39.216 1.62.627.204.364.587.668.851.675.546.015 2.28 1.375 2.28 1.788 0 .15.36.73.8 1.29 1.604 2.039.635 4.766-2.658 7.474-1.631 1.342-8.661 1.582-9.808.335a14 14 0 0 0-1.413-1.3c-.993-.775-2.521-3.3-2.521-4.168 0-.562-.35-.654-2.1-.553l-2.1.121-.127 1.785c-.086 1.204.058 1.922.442 2.202.313.229.705.847.873 1.374.407 1.284 3.697 4.439 4.629 4.439.409 0 .905.289 1.102.642.309.551 1.091.619 5.52.482 7.177-.222 10.258-1.968 12.576-7.124.57-1.267.351-7.615-.29-8.411-1.865-2.314-3.904-4.389-4.314-4.389-.268 0-.813-.36-1.211-.8-.398-.44-1.058-.8-1.466-.8-.408 0-1.05-.36-1.427-.8-.416-.486-1.18-.8-1.947-.8-.694 0-1.486-.27-1.76-.6-.274-.33-1.022-.6-1.662-.6-.651 0-1.262-.257-1.388-.585-.123-.321-.573-.695-1-.831-1.204-.382-2.667-1.913-2.966-3.104-.149-.594-.431-1.08-.627-1.08-.49 0-.453-1.894.043-2.2.22-.136.4-.687.4-1.224 0-1.448 3.052-4.3 4.274-3.993.664.166.926.06.926-.375 0-.443.436-.608 1.6-.608 1.046 0 1.6.18 1.6.52 0 .322.503.52 1.319.52 1.362 0 3.446 1.212 3.468 2.017.007.252.28.56.606.685.326.125.706.934.844 1.799.364 2.279 4.963 3.536 4.963 1.356 0-2.664-2.657-6.791-5.935-9.219-1.285-.952-7.28-1.509-10.865-1.009m38.39 1.345c-.435.61-.79 1.317-.79 1.57 0 .253-.328 1.215-.729 2.138-.401.923-1.054 2.488-1.451 3.478-1.014 2.533-1.607 3.924-2.577 6.044-.464 1.014-.843 2.103-.843 2.42 0 .317-.144.747-.32.956-.176.209-.742 1.46-1.258 2.78-.516 1.32-1.24 3.12-1.609 4-.369.88-.988 2.41-1.374 3.4-.387.99-.958 2.31-1.271 2.932-.312.623-.569 1.343-.57 1.6-.002.258-.286 1.008-.633 1.668-.626 1.193-1.492 3.397-2.16 5.5-.21.661-.201 1.12.023 1.15 3.167.426 4.149.038 4.784-1.886.261-.793.725-1.919 1.029-2.503.305-.583.555-1.258.557-1.5.017-3.168 1.779-3.761 11.178-3.761 10.187 0 10.312.026 11.306 2.36a206.49 206.49 0 0 0 1.351 3.1c.312.694.567 1.476.567 1.739 0 1.865 4.234 3.671 5.412 2.308.082-.095-1.764-4.885-2.894-7.507-.237-.55-.752-1.81-1.145-2.8-.393-.99-1.043-2.555-1.444-3.478s-.729-1.853-.729-2.068c0-.214-.259-.899-.576-1.522-.316-.622-1.23-2.752-2.029-4.732-.8-1.98-1.711-4.167-2.024-4.86-.314-.694-.571-1.513-.571-1.82 0-.308-.162-.731-.359-.94-.198-.209-.839-1.64-1.424-3.18-.585-1.54-1.324-3.278-1.641-3.862-.317-.584-.576-1.314-.576-1.623 0-2.209-3.843-3.021-5.21-1.101m27.878-.885c-.613.119-.668 1.776-.668 20.254v20.124l.959.183c.528.101 1.518.101 2.2.001l1.241-.182v-8.705c0-6.74.12-8.805.53-9.146.333-.276 3.342-.48 8.1-.549l7.57-.109v-3.6l-7.6-.105c-6.572-.091-7.668-.196-8.1-.776-.609-.818-.701-11.138-.113-12.684l.387-1.018 7.713-.108L149 307.8v-3.433l-9.632-.084c-5.298-.045-9.933-.025-10.3.046m28.677.271c-.084.22-.106 9.365-.049 20.323l.104 19.923 9.5-.011c5.225-.007 9.77-.017 10.1-.023.862-.017.832-3.037-.033-3.369-.348-.134-3.768-.243-7.6-.243-9.219 0-8.713.464-8.474-7.775.225-7.752-.613-7.025 8.098-7.025 8.456 0 8.609-.031 8.609-1.763 0-2.157-.295-2.237-8.231-2.237-8.949 0-8.244.616-8.238-7.206.007-7.796-.753-7.153 8.611-7.286l7.658-.108.123-1.7c.102-1.413.001-1.703-.6-1.717-9.06-.219-19.455-.103-19.578.217m25.176.062c-.098.254-.12 1.064-.049 1.8L183 307.8l4.868.2c2.678.11 5.018.35 5.2.533.183.183.422 8.463.532 18.4l.2 18.067 1.4.023c.77.012 1.625-.052 1.9-.143.39-.129.5-4.102.5-18.074 0-20.836-.625-18.737 5.624-18.892l4.576-.114v-3.456l-12.351-.072c-9.026-.053-12.398.052-12.528.39m29.001-.358c-.572.123-.412.597 1.02 3.021.934 1.581 1.813 3.176 1.954 3.545.14.368.753 1.448 1.361 2.4 1.071 1.677 2.656 4.467 3.937 6.93.344.66 1.256 2.28 2.027 3.6 2.845 4.867 2.768 4.525 2.904 12.992.134 8.372.114 8.305 2.393 8.227l1.482-.051.2-8.384c.186-7.787.263-8.484 1.088-9.784.489-.77 1.158-1.94 1.488-2.6.33-.66 1.235-2.28 2.011-3.6.776-1.32 1.634-2.85 1.907-3.4.273-.55 1.553-2.8 2.845-5 1.292-2.2 2.517-4.36 2.722-4.8.206-.44.627-1.245.937-1.788.689-1.208.29-1.527-1.72-1.373-.813.063-1.772.124-2.131.137-.36.013-.765.339-.9.724-.135.385-.936 1.96-1.779 3.5-.843 1.54-2.316 4.24-3.275 6a314.38 314.38 0 0 1-2.661 4.8c-.505.88-1.091 1.988-1.301 2.461-.917 2.068-2.049 1.269-4.335-3.061-.872-1.65-2.175-4.08-2.896-5.4-.721-1.32-2.029-3.75-2.907-5.4-2.095-3.941-2.943-4.433-6.371-3.696m51.978-.022c-.655.165-.7 1.469-.7 20.301 0 22.679-.269 20.87 3.029 20.335l1.371-.223v-15.298c0-19.388-.42-18.731 6-9.38.77 1.121 1.581 2.251 1.803 2.511.221.26 1.475 2.092 2.785 4.072s2.613 3.744 2.897 3.92c.283.176.515.498.515.716 0 .354 1.466 2.655 2.016 3.164.329.305 4.113 5.975 4.706 7.052.287.521.692.948.9.948.208 0 .378.239.378.53 0 1.437 3.926 2.878 4.977 1.826.099-.098.227-9.14.285-20.092.116-21.837.259-20.609-2.384-20.449l-1.478.09-.2 15.648c-.11 8.606-.357 15.671-.549 15.7-.525.077-2.651-2.043-2.651-2.644 0-.288-.27-.627-.6-.754-.33-.126-.6-.478-.6-.78 0-.303-.36-.877-.8-1.275-.44-.398-.8-.889-.8-1.091 0-.201-.225-.617-.5-.924-.892-.994-3.517-4.712-5.9-8.355-.796-1.218-3.497-5.141-5.251-7.63-.776-1.1-2.28-3.26-3.343-4.8a619.935 619.935 0 0 0-1.969-2.844c-.156-.189-3.384-.414-3.937-.274m66.372-.021c-.149.15-.272 1.052-.272 2.006V308l4.1.005c2.255.003 4.46.103 4.9.221.787.211.798.503.683 17.894-.137 20.709-.277 19.484 2.225 19.467 3.653-.024 3.423 1.299 3.333-19.142l-.08-17.979.855-.271c.47-.149 2.504-.213 4.52-.141 4.371.156 4.614.04 4.501-2.154l-.087-1.7-12.203-.106c-6.711-.058-12.325.017-12.475.167M304.4 324.6v20.2h20.312l.159-1.356c.268-2.296.444-2.244-7.655-2.244-9.255 0-8.466.744-8.326-7.853l.11-6.747 7.857-.108 7.857-.109.183-1.491c.313-2.564.535-2.492-7.66-2.492-9.196 0-8.437.648-8.437-7.2 0-7.849-.762-7.2 8.456-7.2 8.16 0 7.916.067 7.644-2.1l-.188-1.5H304.4v20.2m-198.765-10.186c.456 1.202 1.013 2.816 1.238 3.586.226.77.545 1.58.711 1.8.165.22.493.94.729 1.6.236.66.811 2.19 1.279 3.4 2.928 7.584 3.42 7.089-6.746 6.8-8.36-.237-8.057.046-5.867-5.492.781-1.977 1.421-3.728 1.421-3.891 0-.163.26-.863.578-1.557.318-.693 1.241-2.97 2.051-5.06 2.213-5.711 2.83-5.87 4.606-1.186" fill="#645f5c"/><path d="M200.1 24.87c-.715.442-1.3.967-1.3 1.167 0 .2-.276.363-.613.363-.336 0-.713.263-.837.585-.123.321-.598.703-1.056.849-.827.262-1.307.587-2.653 1.797-.386.346-1.003.746-1.372.887-.368.141-.669.443-.669.669 0 .227-.272.413-.604.413-.332 0-.912.36-1.289.8-.377.44-.915.8-1.196.8-.281 0-.511.184-.511.41 0 .225-.45.581-1 .79-.55.209-1 .565-1 .79 0 .226-.225.411-.5.412-.275.001-1.185.631-2.022 1.4-.838.769-1.722 1.398-1.967 1.398-.244 0-.729.262-1.077.581-2.105 1.931-2.473 2.219-2.847 2.219-.226 0-.516.27-.642.6-.127.33-.531.6-.899.6-.367 0-.966.315-1.329.7-1.358 1.439-2.721 2.41-4.562 3.252-.465.213-.955.671-1.088 1.017-.133.347-.503.631-.821.631-.319 0-.639.135-.713.3-.073.165-.898.819-1.833 1.454-.935.635-1.7 1.31-1.7 1.5 0 .19-.233.346-.519.346-.514 0-1.744.816-3.059 2.031-.376.346-.984.746-1.353.887-.368.141-.669.443-.669.669 0 .227-.233.413-.519.413-.514 0-1.744.816-3.059 2.031-.376.346-.984.746-1.353.887-.368.141-.669.443-.669.669 0 .227-.272.413-.604.413-.332 0-.912.36-1.289.8-.377.44-.896.8-1.153.8-.258 0-.572.27-.699.6-.126.33-.478.6-.78.6-.303 0-.877.36-1.275.8-.398.44-.947.8-1.219.8-.273 0-.599.27-.726.6-.126.33-.486.6-.8.6-.313 0-.673.27-.8.6-.126.33-.445.6-.709.6-.263 0-.764.262-1.112.581-.349.32-1.039.95-1.534 1.4-.495.451-1.151.819-1.457.819-.307 0-.661.27-.788.6-.126.33-.499.6-.828.6-.33 0-.792.36-1.027.8-.235.44-.692.8-1.014.8-.322 0-.586.177-.586.392 0 .216-.437.502-.971.636-.534.135-1.068.498-1.188.808-.119.31-.452.564-.74.564s-.813.315-1.167.7c-1.01 1.099-2.447 2.1-3.015 2.1-.286 0-.519.158-.519.352 0 .194-1.26 1.205-2.8 2.248-1.54 1.043-2.8 2.054-2.8 2.248 0 .194-.276.352-.613.352-.336 0-.716.27-.842.6-.127.33-.445.6-.706.6-.489 0-1.756.862-3.086 2.1-.414.385-.983.7-1.264.7s-.815.315-1.186.7c-1.448 1.502-2.187 2.1-2.594 2.1-.233 0-.527.27-.654.6-.126.33-.589.6-1.028.6-.44 0-.992.36-1.227.8-.235.44-.692.8-1.014.8-.322 0-.586.184-.586.41 0 .225-.405.585-.9.799-1.397.604-2.439 1.326-3.017 2.091-.29.385-.788.7-1.106.7-.317 0-.577.168-.577.373s-.315.474-.7.597c-.385.124-1.408.856-2.273 1.627-.865.772-1.727 1.403-1.917 1.403-.34 0-.909.409-2.269 1.631-.386.346-1.003.746-1.372.887-.368.141-.669.443-.669.669 0 .227-.272.413-.604.413-.332 0-.912.36-1.289.8-.377.44-.915.8-1.196.8-.281 0-.511.184-.511.41 0 .225-.45.581-1 .79-.55.209-1 .565-1 .79 0 .226-.255.41-.566.41-.311 0-1.214.63-2.007 1.4-.793.77-1.648 1.4-1.901 1.4-.252 0-.744.262-1.092.581-1.908 1.751-2.354 2.103-2.965 2.337-.368.141-.669.443-.669.669 0 .227-.355.413-.79.413-2.092 0-1.997-3.605-2.004 76.342-.003 41.793.148 74.411.347 74.935l.353.928 126.747-.047 126.747-.047.2-74.956c.212-79.317.256-77.155-1.567-77.155-.411 0-.851-.27-.978-.6-.126-.33-.466-.6-.754-.6s-.827-.315-1.198-.7c-1.57-1.628-2.207-2.1-2.837-2.1-.366 0-.666-.156-.666-.346 0-.19-.765-.864-1.7-1.498-.935-.635-1.844-1.379-2.02-1.655-.176-.275-.586-.501-.912-.501-.326 0-.697-.27-.823-.6-.127-.33-.441-.6-.699-.6-.257 0-.776-.36-1.153-.8-.377-.44-.938-.8-1.246-.8-.309 0-.665-.27-.792-.6-.126-.33-.416-.6-.642-.6-.227 0-.752-.315-1.166-.7-1.364-1.269-2.602-2.1-3.128-2.1-.286 0-.519-.156-.519-.346 0-.19-.765-.865-1.7-1.5-2.084-1.415-2.546-1.763-3.529-2.654-.424-.385-.957-.7-1.184-.7-.226 0-.509-.254-.628-.564-.12-.31-.654-.673-1.188-.808-.534-.134-.971-.42-.971-.636 0-.215-.264-.392-.586-.392-.322 0-.779-.36-1.014-.8-.235-.44-.697-.8-1.027-.8-.329 0-.702-.27-.828-.6-.127-.33-.531-.6-.899-.6-.367 0-.972-.315-1.343-.7-1.484-1.538-2.192-2.1-2.649-2.1-.264 0-.583-.27-.709-.6-.127-.33-.487-.6-.8-.6-.314 0-.674-.27-.8-.6-.127-.33-.475-.6-.774-.6-.298 0-.736-.36-.971-.8-.235-.44-.787-.8-1.227-.8-.439 0-.902-.27-1.028-.6-.127-.33-.441-.6-.699-.6-.257 0-.772-.315-1.143-.7-1.554-1.611-2.204-2.1-2.794-2.1-.343 0-.727-.27-.854-.6-.126-.33-.506-.6-.842-.6-.337 0-.613-.162-.613-.36 0-.303-2.188-1.862-3.341-2.381-.188-.084-.968-.762-1.735-1.506-.766-.744-1.653-1.353-1.971-1.353-.318 0-.682-.27-.808-.6-.127-.33-.441-.6-.699-.6-.257 0-.766-.315-1.129-.7-1.037-1.098-1.712-1.581-2.611-1.866-.458-.146-.933-.528-1.056-.849-.124-.322-.411-.585-.637-.585-.227 0-.76-.315-1.184-.7-1.429-1.296-1.993-1.7-2.378-1.7-.21 0-1.031-.63-1.824-1.4-.793-.77-1.714-1.4-2.047-1.4-.333 0-.709-.27-.835-.6-.127-.33-.472-.6-.768-.6-.295 0-.681-.225-.857-.5-.387-.604-2.757-2.3-3.215-2.3-.18 0-.631-.315-1.002-.7-1.321-1.37-2.174-2.1-2.454-2.1-.478 0-4.649-3.273-4.649-3.648 0-.194-.366-.352-.813-.352-.446 0-.916-.27-1.042-.6-.127-.33-.441-.6-.699-.6-.257 0-.776-.36-1.153-.8-.377-.44-.957-.8-1.289-.8-.332 0-.604-.184-.604-.41 0-.225-.45-.581-1-.79-.55-.209-1-.565-1-.79 0-.226-.23-.41-.511-.41s-.819-.36-1.196-.8c-.377-.44-.938-.8-1.246-.8-.309 0-.665-.27-.792-.6-.126-.33-.404-.6-.618-.6-.213 0-.98-.541-1.704-1.202-.724-.661-1.661-1.312-2.082-1.445-.422-.134-1.255-.743-1.851-1.353-.596-.61-1.47-1.232-1.942-1.382-.472-.149-.858-.44-.858-.645 0-.205-.264-.373-.586-.373-.322 0-.779-.36-1.014-.8-.235-.44-.673-.8-.971-.8-.299 0-.633-.225-.742-.5-.11-.275-.894-.86-1.743-1.3-.849-.44-2.157-1.385-2.905-2.1-.749-.715-1.61-1.3-1.913-1.3-.303 0-.655-.27-.781-.6-.127-.33-.475-.6-.774-.6-.298 0-.736-.36-.971-.8-.235-.44-.787-.8-1.227-.8-.439 0-.902-.27-1.028-.6-.127-.33-.487-.6-.8-.6-.314 0-.674-.27-.8-.6-.307-.799-1.263-.708-2.845.27m57.711 106.377c1.007 2.944 2.011 5.983 2.231 6.753.22.77.647 1.94.948 2.6.301.66.837 2.031 1.191 3.046.78 2.236 1.282 2.343 11.019 2.353 7.621.008 11.492.343 11.751 1.017.114.298-2.201 2.308-5.679 4.927-6.459 4.866-7.298 5.51-8.592 6.594a44.219 44.219 0 0 1-1.858 1.452c-.921.673-.952.819-.528 2.463.524 2.032 1.638 5.78 3.909 13.148 2.205 7.154 1.915 7.735-2.368 4.736-1.678-1.175-3.371-2.316-3.763-2.536-.391-.22-1.422-.943-2.292-1.607-.869-.664-2.66-1.923-3.98-2.798-1.32-.875-2.626-1.805-2.902-2.067-1.323-1.253-4.148-.494-6.289 1.689-.225.23-1.939 1.452-3.809 2.717a834.997 834.997 0 0 0-6.549 4.483c-3.942 2.733-5.54 2.517-3.869-.522.21-.382.851-2.405 1.425-4.495.574-2.09 1.209-4.16 1.411-4.6.202-.44.54-1.52.75-2.4.21-.88.786-2.919 1.279-4.532.567-1.851.751-3.031.5-3.2-3.207-2.163-16.928-13.126-16.824-13.44.212-.641 3.986-.947 12.877-1.044 8.846-.096 9.535-.265 10.016-2.457.157-.716.433-1.577.614-1.914.18-.337.817-2.143 1.416-4.013s1.218-3.58 1.375-3.8c.158-.22.418-1.03.579-1.8.161-.77.438-1.582.617-1.805.178-.223.54-1.264.804-2.313 1.174-4.661 2.07-4.003 4.59 3.365" fill="#fb942b"/><path d="M201.5 23.494c-1.321.104-1.9.326-1.9.728 0 .318-.36.578-.8.578-.444 0-.8.267-.8.6 0 .4-.4.6-1.2.6-.933 0-1.2.178-1.2.8 0 .533-.267.8-.8.8-.444 0-.8.267-.8.6 0 .514-.997.822-2.1.647-.165-.026-.3.223-.3.553 0 .343-.36.6-.843.6-.606 0-.774.179-.598.637.163.425-.023.707-.557.847-.441.115-.802.458-.802.763 0 .367-.478.553-1.424.553-.907 0-1.327.155-1.159.427.145.235-.114.526-.577.647-.502.131-.84.543-.84 1.023 0 .677-.186.766-1.184.566-.701-.14-1.3-.051-1.466.218-.185.3-.054.368.384.2.44-.169.666-.051.666.349 0 .333-.225.576-.5.54-1.206-.157-1.9.073-1.9.63 0 .33-.27.6-.6.6-.341 0-.6.359-.6.833 0 .72-.188.807-1.4.644-1.173-.158-1.4-.066-1.4.567 0 .416-.27.756-.6.756-.33 0-.6.291-.6.647 0 .449-.244.583-.8.437-.643-.168-.8-.012-.8.797 0 .882-.127.974-1.033.746-.825-.207-1.077-.094-1.247.557-.119.457-.545.816-.967.816-.414 0-.753.27-.753.6 0 .403-.403.6-1.224.6-.765 0-1.124.16-.959.427.145.235-.114.526-.577.647-.478.125-.84.544-.84.973 0 .486-.283.753-.8.753-.444 0-.8.267-.8.6 0 .431-.44.6-1.563.6-1.401 0-1.539.089-1.337.859.2.768.101.833-.938.616-.639-.134-.937-.145-.662-.026.275.12.5.473.5.784 0 .7-1.058.753-1.335.067-.161-.4-.208-.4-.233 0-.018.275-.321.5-.675.5-.407 0-.558.22-.412.6.156.408-.022.6-.558.6-.535 0-.787.271-.787.847 0 .63-.191.796-.749.65-.577-.15-.704-.023-.554.554.165.63-.033.749-1.25.749-1.02 0-1.447.177-1.447.6 0 .33-.27.6-.6.6-.33 0-.6.347-.6.772 0 .494-.325.822-.9.91-.495.075-.855.358-.8.627.055.27-.035.47-.2.444-1.103-.175-2.1.133-2.1.647 0 .333-.356.6-.8.6-.544 0-.8.267-.8.832 0 .716-.167.795-1.2.568-1.033-.227-1.2-.148-1.2.568 0 .565-.256.832-.8.832-.444 0-.8.267-.8.6 0 .33-.27.6-.6.6-.338 0-.6.358-.6.818 0 .718-.171.786-1.4.556-1.241-.233-1.4-.167-1.4.581 0 .484-.256.845-.6.845-.33 0-.6.27-.6.6 0 .419-.422.6-1.4.6-.93 0-1.4.187-1.4.557 0 .307-.27.661-.6.788-.33.126-.6.506-.6.842 0 .337-.27.613-.6.613-.33 0-.6.281-.6.625 0 .356-.302.595-.7.554-1.577-.16-2.1.044-2.1.821 0 .444-.267.8-.6.8-.33 0-.6.27-.6.6 0 .421-.425.6-1.424.6-.907 0-1.327.155-1.159.427.145.235-.114.526-.577.647-.478.125-.84.544-.84.973 0 .486-.283.753-.8.753-.444 0-.8.267-.8.6 0 .4-.4.6-1.2.6-.8 0-1.2.2-1.2.6 0 .333-.356.6-.8.6-.541 0-.8.267-.8.824 0 .685-.196.793-1.164.641-.898-.142-1.209-.01-1.363.576-.109.417-.504.759-.878.759-.441 0-.599.212-.45.6.156.408-.022.6-.558.6-.52 0-.787.271-.787.8 0 .444-.267.8-.6.8-.33 0-.6-.186-.6-.414 0-.281-.258-.276-.8.014-.44.235-.8.692-.8 1.014 0 .322-.27.586-.6.586-.33 0-.6.27-.6.6 0 .333-.356.6-.8.6-.44 0-.755.225-.7.5.06.299-.422.55-1.2.625-.976.094-1.3.319-1.3.9 0 .426-.27.775-.6.775-.33 0-.6.27-.6.6 0 .419-.422.6-1.4.6s-1.4.181-1.4.6c0 .33-.27.6-.6.6-.333 0-.6.356-.6.8 0 .533-.267.8-.8.8-.444 0-.8.267-.8.6 0 .416-.418.6-1.363.6-1.165 0-1.332.116-1.153.8.161.614.012.8-.637.8-.486 0-.847.256-.847.6 0 .54-.775.814-1.768.625-.202-.039-.126.22.168.575.294.355.37.614.168.575-1.449-.275-2.568.084-2.568.825 0 .444-.267.8-.6.8-.33 0-.6.27-.6.6 0 .419-.422.6-1.4.6s-1.4.181-1.4.6c0 .33-.27.6-.6.6-.333 0-.6.356-.6.8 0 .875-1.011 1.103-1.335.3-.111-.275-.216-.005-.233.6-.028.949-.197 1.1-1.232 1.1-.8 0-1.2.2-1.2.6 0 .33-.27.6-.6.6-.344 0-.6.361-.6.845 0 .754-.155.815-1.454.571-1.251-.234-1.418-.18-1.198.393.176.457.005.731-.546.875-.441.115-.802.458-.802.763 0 .304-.36.553-.8.553-.533 0-.8.267-.8.8 0 .444-.267.8-.6.8-.531 0-.6 8.689-.6 75.8v75.8h257.204l-.006-75.986c-.005-67.148-.075-75.959-.602-75.757-.532.204-.786-.252-.643-1.157.026-.165-.313-.3-.753-.3-.444 0-.8-.267-.8-.6 0-.343-.36-.6-.843-.6-.581 0-.772-.185-.615-.594.134-.349-.095-.767-.557-1.014-.537-.288-.785-.289-.785-.006 0 .228-.27.414-.6.414-.333 0-.6-.356-.6-.8 0-.444-.267-.8-.6-.8-.33 0-.6-.27-.6-.6 0-.58-.64-.769-2.1-.621-.385.039-.7-.12-.7-.354 0-.234.371-.425.824-.425.453 0 .722-.164.598-.365-.124-.2-.765-.28-1.424-.176-1.004.158-1.198.056-1.198-.635 0-.557-.259-.824-.8-.824-.444 0-.8-.267-.8-.6 0-.4-.4-.6-1.2-.6-.8 0-1.2-.2-1.2-.6 0-.333-.356-.6-.8-.6-.533 0-.8-.267-.8-.8 0-.444-.267-.8-.6-.8-.33 0-.6-.27-.6-.6 0-.423-.427-.6-1.447-.6-1.217 0-1.415-.119-1.25-.749.15-.577.023-.704-.554-.554-.558.146-.749-.02-.749-.65 0-.466-.251-.847-.557-.847-.307 0-.661-.27-.788-.6-.134-.351-.734-.6-1.442-.6-.812 0-1.213-.199-1.213-.6 0-.33-.27-.6-.6-.6-.333 0-.6-.356-.6-.8 0-.648-.267-.8-1.4-.8-.978 0-1.4-.181-1.4-.6 0-.33-.249-.6-.553-.6-.305 0-.653-.378-.773-.84-.13-.497-.406-.726-.674-.56-.268.166-.544-.063-.674-.56-.159-.608-.537-.84-1.373-.84-.758 0-1.153-.205-1.153-.6 0-.333-.356-.6-.8-.6-.533 0-.8-.267-.8-.8 0-.748-.579-1.001-1.9-.83-.275.036-.5-.213-.5-.552 0-.351-.345-.618-.8-.618-.444 0-.8-.267-.8-.6 0-.33-.27-.6-.6-.6-.345 0-.6-.361-.6-.85 0-.728-.17-.816-1.178-.614-.939.187-1.228.076-1.427-.55-.137-.433-.507-.786-.822-.786-.315 0-.573-.27-.573-.6 0-.33-.249-.6-.553-.6-.305 0-.645-.347-.756-.772-.16-.614-.458-.732-1.446-.576-1.054.166-1.245.07-1.245-.628 0-.466-.261-.824-.6-.824-.33 0-.6-.27-.6-.6 0-.33-.249-.6-.553-.6-.305 0-.648-.36-.763-.8-.115-.44-.451-.786-.747-.768-.404.023-.413.081-.037.233.703.284.625 1.335-.1 1.335-.33 0-.6-.27-.6-.6 0-.33-.27-.6-.6-.6-.333 0-.6-.356-.6-.8 0-.533-.267-.8-.8-.8-.444 0-.8-.267-.8-.6 0-.4-.4-.6-1.2-.6-.8 0-1.2-.2-1.2-.6 0-.333-.356-.6-.8-.6-.533 0-.8-.267-.8-.8 0-.444-.267-.8-.6-.8-.33 0-.6-.27-.6-.6 0-.419-.422-.6-1.4-.6s-1.4-.181-1.4-.6c0-.33-.27-.6-.6-.6-.333 0-.6-.356-.6-.8 0-.44-.257-.8-.571-.8-.314 0-.653-.315-.753-.7-.174-.667-.185-.667-.23 0-.056.852-.846.945-.846.1 0-.333-.356-.6-.8-.6-.529 0-.8-.267-.8-.787 0-.536-.192-.714-.6-.558-.416.16-.6-.027-.6-.612 0-.697-.243-.843-1.4-.843-.978 0-1.4-.181-1.4-.6 0-.33-.27-.6-.6-.6-.541 0-.778-.475-.647-1.3.026-.165-.229-.3-.566-.3-.336 0-.716-.27-.842-.6-.132-.342-.728-.6-1.388-.6-.762 0-1.157-.205-1.157-.6 0-.33-.339-.6-.753-.6-.417 0-.847-.357-.963-.8-.141-.541-.546-.8-1.247-.8-.655 0-1.037-.221-1.037-.6 0-.333-.356-.6-.8-.6-.444 0-.8-.267-.8-.6 0-.33-.27-.6-.6-.6-.341 0-.6-.359-.6-.832 0-.72-.165-.795-1.228-.562-1.03.226-1.262.135-1.446-.568-.121-.461-.468-.838-.773-.838-.304 0-.553-.27-.553-.6 0-.33-.27-.6-.6-.6-.33 0-.6-.27-.6-.6 0-.58-.64-.769-2.1-.621-.463.047-.7-.208-.7-.754 0-.467-.261-.825-.6-.825-.33 0-.6-.27-.6-.6 0-.58-.64-.769-2.1-.621-.398.041-.7-.198-.7-.554a.615.615 0 0 0-.6-.625c-.333 0-.6-.356-.6-.8 0-.533-.267-.8-.8-.8-.444 0-.8-.267-.8-.6 0-.4-.4-.6-1.2-.6-1.221 0-1.705-.925-.7-1.34.275-.113-.113-.1-.863.03-1.246.215-1.344.161-1.137-.627.199-.763.062-.863-1.18-.863-1.085 0-1.353-.137-1.175-.6.166-.433-.044-.6-.758-.6-.611 0-.987-.229-.987-.6 0-.33-.27-.6-.6-.6-.333 0-.6-.356-.6-.8 0-.646-.267-.8-1.387-.8-1.069 0-1.335-.138-1.158-.6.16-.416-.027-.6-.612-.6-.576 0-.843-.253-.843-.8 0-.529-.267-.8-.787-.8-.536 0-.714-.192-.558-.6.179-.465-.094-.6-1.212-.6-1.016 0-1.443-.178-1.443-.6 0-.33-.27-.6-.6-.6-.333 0-.6-.356-.6-.8 0-.44-.251-.8-.557-.8-.307 0-.661-.27-.788-.6-.134-.351-.734-.6-1.442-.6-.812 0-1.213-.199-1.213-.6 0-.333-.356-.6-.8-.6-.533 0-.8-.267-.8-.8 0-.44-.225-.768-.5-.728-.275.04-1.355.14-2.4.222m1.445 1.106c.126.33.486.6.8.6.313 0 .673.27.8.6.126.33.589.6 1.028.6.44 0 .992.36 1.227.8.235.44.673.8.971.8.299 0 .647.27.774.6.126.33.478.6.781.6.303 0 1.164.585 1.913 1.3.748.715 2.056 1.66 2.905 2.1.849.44 1.633 1.025 1.743 1.3.109.275.443.5.742.5.298 0 .736.36.971.8.235.44.692.8 1.014.8.322 0 .586.168.586.373s.386.496.858.645c.472.15 1.346.772 1.942 1.382.596.61 1.429 1.219 1.851 1.353.421.133 1.358.784 2.082 1.445.724.661 1.491 1.202 1.704 1.202.214 0 .492.27.618.6.127.33.483.6.792.6.308 0 .869.36 1.246.8.377.44.915.8 1.196.8.281 0 .511.184.511.41 0 .225.45.581 1 .79.55.209 1 .565 1 .79 0 .226.272.41.604.41.332 0 .912.36 1.289.8.377.44.896.8 1.153.8.258 0 .572.27.699.6.126.33.596.6 1.042.6.447 0 .813.158.813.352 0 .375 4.171 3.648 4.649 3.648.28 0 1.133.73 2.454 2.1.371.385.822.7 1.002.7.458 0 2.828 1.696 3.215 2.3.176.275.562.5.857.5.296 0 .641.27.768.6.126.33.502.6.835.6.333 0 1.254.63 2.047 1.4.793.77 1.614 1.4 1.824 1.4.385 0 .949.404 2.378 1.7.424.385.957.7 1.184.7.226 0 .513.263.637.585.123.321.598.703 1.056.849.899.285 1.574.768 2.611 1.866.363.385.872.7 1.129.7.258 0 .572.27.699.6.126.33.49.6.808.6.318 0 1.205.609 1.971 1.353.767.744 1.547 1.422 1.735 1.506 1.153.519 3.341 2.078 3.341 2.381 0 .198.276.36.613.36.336 0 .716.27.842.6.127.33.511.6.854.6.59 0 1.24.489 2.794 2.1.371.385.886.7 1.143.7.258 0 .572.27.699.6.126.33.589.6 1.028.6.44 0 .992.36 1.227.8.235.44.673.8.971.8.299 0 .647.27.774.6.126.33.486.6.8.6.313 0 .673.27.8.6.126.33.445.6.709.6.457 0 1.165.562 2.649 2.1.371.385.976.7 1.343.7.368 0 .772.27.899.6.126.33.499.6.828.6.33 0 .792.36 1.027.8.235.44.692.8 1.014.8.322 0 .586.177.586.392 0 .216.437.502.971.636.534.135 1.068.498 1.188.808.119.31.402.564.628.564.227 0 .76.315 1.184.7.983.891 1.445 1.239 3.529 2.654.935.635 1.7 1.31 1.7 1.5 0 .19.233.346.519.346.526 0 1.764.831 3.128 2.1.414.385.939.7 1.166.7.226 0 .516.27.642.6.127.33.483.6.792.6.308 0 .869.36 1.246.8.377.44.896.8 1.153.8.258 0 .572.27.699.6.126.33.497.6.823.6.326 0 .736.226.912.501.176.276 1.085 1.02 2.02 1.655.935.634 1.7 1.308 1.7 1.498 0 .19.3.346.666.346.63 0 1.267.472 2.837 2.1.371.385.91.7 1.198.7.288 0 .628.27.754.6.127.33.567.6.978.6 1.823 0 1.779-2.162 1.567 77.155l-.2 74.956-126.747.047-126.747.047-.353-.928c-.199-.524-.35-33.142-.347-74.935.007-79.947-.088-76.342 2.004-76.342.435 0 .79-.186.79-.413 0-.226.301-.528.669-.669.611-.234 1.057-.586 2.965-2.337.348-.319.84-.581 1.092-.581.253 0 1.108-.63 1.901-1.4.793-.77 1.696-1.4 2.007-1.4.311 0 .566-.184.566-.41 0-.225.45-.581 1-.79.55-.209 1-.565 1-.79 0-.226.23-.41.511-.41s.819-.36 1.196-.8c.377-.44.957-.8 1.289-.8.332 0 .604-.186.604-.413 0-.226.301-.528.669-.669.369-.141.986-.541 1.372-.887 1.36-1.222 1.929-1.631 2.269-1.631.19 0 1.052-.631 1.917-1.403.865-.771 1.888-1.503 2.273-1.627.385-.123.7-.392.7-.597 0-.205.26-.373.577-.373.318 0 .816-.315 1.106-.7.578-.765 1.62-1.487 3.017-2.091.495-.214.9-.574.9-.799 0-.226.264-.41.586-.41.322 0 .779-.36 1.014-.8.235-.44.787-.8 1.227-.8.439 0 .902-.27 1.028-.6.127-.33.421-.6.654-.6.407 0 1.146-.598 2.594-2.1.371-.385.905-.7 1.186-.7.281 0 .85-.315 1.264-.7 1.33-1.238 2.597-2.1 3.086-2.1.261 0 .579-.27.706-.6.126-.33.506-.6.842-.6.337 0 .613-.158.613-.352 0-.194 1.26-1.205 2.8-2.248 1.54-1.043 2.8-2.054 2.8-2.248 0-.194.233-.352.519-.352.568 0 2.005-1.001 3.015-2.1.354-.385.879-.7 1.167-.7.288 0 .621-.254.74-.564.12-.31.654-.673 1.188-.808.534-.134.971-.42.971-.636 0-.215.264-.392.586-.392.322 0 .779-.36 1.014-.8.235-.44.697-.8 1.027-.8.329 0 .702-.27.828-.6.127-.33.481-.6.788-.6.306 0 .962-.368 1.457-.819.495-.45 1.185-1.08 1.534-1.4.348-.319.849-.581 1.112-.581.264 0 .583-.27.709-.6.127-.33.487-.6.8-.6.314 0 .674-.27.8-.6.127-.33.453-.6.726-.6.272 0 .821-.36 1.219-.8.398-.44.972-.8 1.275-.8.302 0 .654-.27.78-.6.127-.33.441-.6.699-.6.257 0 .776-.36 1.153-.8.377-.44.957-.8 1.289-.8.332 0 .604-.186.604-.413 0-.226.301-.528.669-.669.369-.141.977-.541 1.353-.887 1.315-1.215 2.545-2.031 3.059-2.031.286 0 .519-.186.519-.413 0-.226.301-.528.669-.669.369-.141.977-.541 1.353-.887 1.315-1.215 2.545-2.031 3.059-2.031.286 0 .519-.156.519-.346 0-.19.765-.865 1.7-1.5.935-.635 1.76-1.289 1.833-1.454.074-.165.394-.3.713-.3.318 0 .688-.284.821-.631.133-.346.623-.804 1.088-1.017 1.841-.842 3.204-1.813 4.562-3.252.363-.385.962-.7 1.329-.7.368 0 .772-.27.899-.6.126-.33.416-.6.642-.6.374 0 .742-.288 2.847-2.219.348-.319.833-.581 1.077-.581.245 0 1.129-.629 1.967-1.398.837-.769 1.747-1.399 2.022-1.4.275-.001.5-.186.5-.412 0-.225.45-.581 1-.79.55-.209 1-.565 1-.79 0-.226.23-.41.511-.41s.819-.36 1.196-.8c.377-.44.957-.8 1.289-.8.332 0 .604-.186.604-.413 0-.226.301-.528.669-.669.369-.141.986-.541 1.372-.887 1.346-1.21 1.826-1.535 2.653-1.797.458-.146.933-.528 1.056-.849.124-.322.501-.585.837-.585.337 0 .613-.163.613-.363 0-1.152 3.755-2.454 4.145-1.437m-75.159 299.6c0 11 .051 15.442.114 9.872s.062-14.57 0-20c-.063-5.43-.115-.872-.114 10.128m28.38-12.6c0 4.07.059 5.735.132 3.7a125.05 125.05 0 0 0 0-7.4c-.073-2.035-.132-.37-.132 3.7m42.417 15.2c0 9.13.052 12.865.117 8.3.064-4.565.064-12.035 0-16.6-.065-4.565-.117-.83-.117 8.3m-64.832-11.6c0 2.53.065 3.565.145 2.3a44.671 44.671 0 0 0 0-4.6c-.08-1.265-.145-.23-.145 2.3m5.149 6.297a85.45 85.45 0 0 0 6.2 0c1.705-.075.31-.136-3.1-.136s-4.805.061-3.1.136m29.2 0c1.485.077 3.915.077 5.4 0 1.485-.077.27-.14-2.7-.14s-4.185.063-2.7.14m146.42.001c1.935.074 4.995.073 6.8-.001 1.804-.074.22-.134-3.52-.133-3.74 0-5.216.061-3.28.134m-214.399 14.8c2.156.073 5.576.072 7.6 0 2.023-.073.259-.132-3.921-.131-4.18 0-5.836.059-3.679.131" fill="#deaf7b"/><path d="M62.75 302.2a8.25 8.25 0 0 0-.11.7c-.038.318-.602.468-1.55.412-1.246-.074-1.49.041-1.49.7 0 .521-.271.788-.8.788-.444 0-.8.267-.8.6 0 .33-.27.6-.6.6-.341 0-.6.359-.6.833 0 .89-.829.879-1.127-.014-.105-.316.006-.418.275-.251.249.154.452.074.452-.178 0-.251-.225-.377-.5-.28-.289.102-.457.708-.398 1.434.083 1.031-.045 1.256-.715 1.256-1.053 0-1.197 11.468-.15 11.87.31.118.563.466.563.773 0 .306.36.557.8.557.444 0 .8.267.8.6 0 .33.27.6.6.6.33 0 .6.204.6.454 0 .952 2.033 2.346 3.421 2.346 1.363 0 1.847.526.879.955-.336.149-.303.21.1.186 2.955-.176 4.089.075 3.884.859-.183.702-.012.8 1.396.8 1.263 0 1.556.128 1.375.6-.178.464.093.6 1.2.6s1.379.136 1.2.6c-.156.408.022.6.558.6.433 0 .787.27.787.6 0 .33.27.6.6.6.476 0 .6.578.6 2.8s-.124 2.8-.6 2.8c-.338 0-.6.358-.6.818 0 .715-.173.786-1.373.561-1.251-.235-1.353-.183-1.153.582.209.798.07.839-2.827.839-2.742 0-3.047-.077-3.047-.771 0-.623-.229-.742-1.2-.619-.975.124-1.2.006-1.2-.629 0-.43-.27-.781-.6-.781-.33 0-.6-.199-.6-.443 0-.243.27-.339.6-.212.33.126.6.056.6-.158 0-.213-.27-.387-.6-.387-.4 0-.6-.4-.6-1.2 0-.933-.178-1.2-.8-1.2-.533 0-.8-.267-.8-.8 0-.733-.267-.8-3.2-.8h-3.2v2.243c0 1.829.111 2.2.6 2.012.478-.183.6.133.6 1.558 0 1.553.111 1.787.847 1.787.675 0 .8.178.616.879-.299 1.147.373 1.918 1.686 1.934 1.031.012 1.035.025.251.654-.65.52-.669.595-.1.399.385-.132.7-.067.7.147 0 .213.36.387.8.387.444 0 .8.267.8.6 0 .453.489.6 2 .6 1.511 0 2 .147 2 .6 0 .491.689.6 3.8.6 2.95 0 3.8-.123 3.8-.548 0-.315.592-.643 1.397-.774 5.549-.9 9.901-8.926 7.991-14.736-.857-2.608-5.58-7.542-7.219-7.542-.702 0-.969-.22-.969-.8 0-.648-.267-.8-1.4-.8-.978 0-1.4-.181-1.4-.6 0-.444-.467-.6-1.8-.6-1.761 0-2.551-.817-1.3-1.344.275-.116-.355-.149-1.4-.073-1.649.119-1.9.037-1.9-.623 0-.418-.27-.76-.6-.76-.33 0-.6-.27-.6-.6 0-.33-.27-.6-.6-.6-.476 0-.6-.578-.6-2.8s.124-2.8.6-2.8c.33 0 .6-.27.6-.6 0-.33.354-.6.787-.6.536 0 .714-.192.558-.6-.195-.506.339-.6 3.412-.6 2.134 0 3.643.164 3.643.395 0 .609 1.315 2.005 1.889 2.005.281 0 .511.27.511.6 0 .33.27.6.6.6.42 0 .6.423.6 1.41 0 1.725 1.112 2.287 4.174 2.108l2.026-.118-.062-2c-.117-3.822-4.052-9.483-7.002-10.073-.763-.152-1.136-.473-1.136-.977 0-.712-9.075-1.251-9.25-.55m283.25-.047c0 .085.45.24 1 .345.55.105 1 .036 1-.153 0-.19-.45-.345-1-.345s-1 .069-1 .153m6.9.102c.885.257.907.846.039 1.016-.363.071-5.358.039-11.1-.071-12.543-.24-12.644-.217-12.63 2.929.015 3.607.564 3.954 6.01 3.8 3.832-.108 4.592-.234 4.696-.777.173-.907-1.016-1.14-5.837-1.147l-4.122-.005.122-1.9.122-1.9H354.949l.088 1.7c.113 2.194-.13 2.31-4.501 2.154-2.016-.072-4.05-.008-4.52.141l-.855.271.08 17.979c.076 17.246.048 18.002-.681 18.554-.942.713-4.428.796-4.657.111-.091-.273-.255-.14-.37.3-.197.747-.027.783 3.13.661l3.337-.13V310h4.6c3.97 0 4.6-.089 4.6-.647 0-.44.245-.582.768-.446.71.186.766-.038.756-3.005-.007-1.764-.148-2.987-.313-2.719-.414.669-2.211.358-2.211-.383 0-.354-.411-.63-1-.674-.578-.043-.704.012-.3.129m-251.846 1.774c-.58.456-1.054 1.111-1.054 1.456s-.384 1.457-.854 2.471c-.942 2.032-1.049 2.287-2.546 6.044-.57 1.43-1.2 2.96-1.4 3.4-.2.44-.83 1.97-1.4 3.4a471.38 471.38 0 0 1-1.366 3.4c-.699 1.696-2.022 4.944-3.421 8.4-.802 1.98-1.621 3.96-1.82 4.4-1.298 2.87-3.142 7.96-2.979 8.223.342.553 2.603.865 4.361.602l1.701-.255 1.711-4.285c2.269-5.686 1.368-5.285 11.88-5.285h8.914l.81 1.675c.445.921.809 1.839.809 2.04 0 .2.259.931.575 1.625.316.693.843 1.924 1.17 2.736.67 1.664 2.268 2.236 4.876 1.746 2.116-.396 2.154-1.541.181-5.448-.174-.344-1.346-3.224-2.605-6.4-1.258-3.176-2.608-6.494-2.999-7.374a78.368 78.368 0 0 1-1.391-3.4c-.374-.99-.923-2.34-1.22-3-.297-.66-.929-2.19-1.404-3.4-.476-1.21-1.378-3.46-2.005-5l-2.116-5.2c-1.378-3.39-4.019-4.45-6.408-2.571m27.646-.397c-.652.38-.7 1.817-.7 21.141v20.734l.9.241c4.459 1.195 4.7.738 4.7-8.929 0-10.787-.943-9.619 7.766-9.619 8.511 0 8.834-.108 8.834-2.948 0-2.738-.074-2.763-7.69-2.682-3.842.041-7.214-.105-7.829-.339l-1.081-.411v-5.177c0-7.12-.824-6.443 7.843-6.443 6.785 0 7.418-.061 8.144-.787.982-.982.828-3.92-.246-4.705-.875-.641-19.554-.709-20.641-.076m28.4 0c-.652.38-.7 1.81-.7 20.998v20.59l1.026.39c.564.214 5.143.39 10.174.39 10.915 0 11.202-.069 11.194-2.69-.01-3.171.21-3.085-8.479-3.31l-7.715-.2-.115-5.4c-.171-7.984-.993-7.2 7.549-7.2 8.483 0 8.768-.088 8.76-2.714-.01-2.996.218-2.912-8.027-2.953-9.023-.045-8.368.431-8.361-6.082.008-6.839-.735-6.258 8.14-6.363 8.445-.099 8.238-.019 8.248-3.198.005-1.685-.115-1.956-1.02-2.3-1.381-.525-19.765-.487-20.674.042m25.529.197c-.911.91-.83 3.865.129 4.733.622.563 1.47.672 4.756.611 2.199-.041 4.198.049 4.442.2.314.194.446 5.388.45 17.751.007 19.582-.137 18.676 2.959 18.676 3.26 0 3.068 1.148 3.053-18.236-.008-9.55.145-17.612.339-17.915.268-.418 1.366-.533 4.576-.478 4.982.086 5.867-.389 5.867-3.148 0-2.804-.092-2.823-13.86-2.823-10.451 0-12.168.085-12.711.629m28.235.043c-.417.745-.456.664 5.535 11.328 2.039 3.63 4.583 8.175 5.654 10.101l1.947 3.501v16.418l1.026.39c4.457 1.694 4.974.821 4.974-8.403 0-8.871-.383-7.265 3.387-14.207 1.546-2.847 5.117-9.109 5.816-10.2.212-.33.654-1.14.983-1.8.329-.66.778-1.47.998-1.8 3.206-4.804 3.144-6.005-.313-5.994-2.61.008-3.619.657-4.966 3.194a144.449 144.449 0 0 1-2.536 4.529c-.753 1.28-1.369 2.394-1.369 2.475 0 1.327-4.782 8.472-5.28 7.888-.642-.753-3.217-5.219-4.666-8.092-.499-.99-1.361-2.61-1.915-3.6-.554-.99-1.468-2.67-2.032-3.732-1.152-2.174-2.063-2.668-4.913-2.668-1.414 0-2.058.186-2.33.672m52.736-.402c-1.145.477-1.188 1.237-1.194 21.44l-.006 20.31 1.026.39c1.336.508 3.227.497 4.2-.024.744-.398.774-1.003.786-15.7l.011-15.286 1.089 1.233c.598.679 1.358 1.629 1.688 2.113.33.484 1.373 1.999 2.318 3.367a608.112 608.112 0 0 1 3.6 5.287c1.035 1.54 1.972 2.89 2.082 3 .278.278 1.719 2.337 4.604 6.58 6.692 9.841 6.673 9.82 8.859 9.82.707 0 1.747-.176 2.311-.39l1.026-.39v-41.24l-1.026-.39c-1.297-.493-3.392-.493-4.174.001-.51.322-.63 2.644-.8 15.494l-.2 15.115-.8-.834a14.83 14.83 0 0 1-1.4-1.746 79.16 79.16 0 0 0-1.818-2.566c-.67-.91-2.287-3.274-3.593-5.254-1.307-1.98-2.473-3.69-2.592-3.8-.118-.11-.513-.65-.877-1.2-.365-.55-1.577-2.26-2.695-3.8-1.119-1.54-2.149-3.07-2.291-3.4-.142-.33-.86-1.35-1.596-2.267-.736-.917-1.338-1.817-1.339-2-.007-2.125-4.971-4.789-7.199-3.863m40.48.21c-.976.976-.658 41.397.33 41.925 1.356.726 20.712.356 21.224-.405.404-.6.207-4.291-.254-4.754-.134-.135-3.695-.336-7.912-.446l-7.668-.2-.11-6.3-.11-6.3 7.51-.006c4.13-.003 7.709-.138 7.952-.3.672-.446 1.027-3.061.577-4.245l-.399-1.049h-6.56c-3.608 0-7.127-.113-7.82-.252l-1.261-.252.111-5.848.11-5.848 7.533-.2c8.539-.227 8.767-.315 8.472-3.281-.278-2.792.022-2.719-11.174-2.719-7.3 0-10.203.132-10.551.48m-230.415 1.198c3.278 2.428 5.935 6.555 5.935 9.219 0 2.18-4.599.923-4.963-1.356-.138-.865-.518-1.674-.844-1.799-.326-.125-.599-.433-.606-.685-.022-.805-2.106-2.017-3.468-2.017-.816 0-1.319-.198-1.319-.52 0-.34-.554-.52-1.6-.52-1.164 0-1.6.165-1.6.608 0 .435-.262.541-.926.375-1.222-.307-4.274 2.545-4.274 3.993 0 .537-.18 1.088-.4 1.224-.496.306-.533 2.2-.043 2.2.196 0 .478.486.627 1.08.299 1.191 1.762 2.722 2.966 3.104.427.136.877.51 1 .831.126.328.737.585 1.388.585.64 0 1.388.27 1.662.6.274.33 1.066.6 1.76.6.767 0 1.531.314 1.947.8.377.44 1.019.8 1.427.8.408 0 1.068.36 1.466.8.398.44.943.8 1.211.8.41 0 2.449 2.075 4.314 4.389.641.796.86 7.144.29 8.411-2.318 5.156-5.399 6.902-12.576 7.124-4.429.137-5.211.069-5.52-.482-.197-.353-.693-.642-1.102-.642-.932 0-4.222-3.155-4.629-4.439-.168-.527-.56-1.145-.873-1.374-.384-.28-.528-.998-.442-2.202l.127-1.785 2.1-.121c1.75-.101 2.1-.009 2.1.553 0 .868 1.528 3.393 2.521 4.168a14 14 0 0 1 1.413 1.3c1.147 1.247 8.177 1.007 9.808-.335 3.293-2.708 4.262-5.435 2.658-7.474-.44-.56-.8-1.14-.8-1.29 0-.413-1.734-1.773-2.28-1.788-.264-.007-.647-.311-.851-.675-.23-.411-.845-.649-1.62-.627-.789.022-1.249-.16-1.249-.495 0-.613-.867-1.016-2.184-1.016-.505 0-1.142-.27-1.416-.6-.274-.33-.932-.6-1.462-.6-.529 0-1.06-.254-1.179-.564-.12-.31-.669-.677-1.222-.816-1.104-.277-1.747-.733-3.065-2.173a96.99 96.99 0 0 0-1.372-1.472c-.275-.285-.5-.802-.5-1.15 0-.348-.36-.941-.8-1.318-.66-.565-.8-1.18-.8-3.507s.14-2.942.8-3.507c.44-.377.8-1.055.8-1.506 0-.451.225-1.093.5-1.426 1.674-2.025 2.769-2.961 3.467-2.961.436 0 .937-.256 1.113-.568.784-1.391 10.635-1.199 12.585.246m32.202.145c.293.402.533.983.533 1.292 0 .309.259 1.039.576 1.623.317.584 1.056 2.322 1.641 3.862s1.226 2.971 1.424 3.18c.197.209.359.632.359.94 0 .307.257 1.126.571 1.82.313.693 1.224 2.88 2.024 4.86.799 1.98 1.713 4.11 2.029 4.732.317.623.576 1.308.576 1.522 0 .215.328 1.145.729 2.068.401.923 1.051 2.488 1.444 3.478.393.99.908 2.25 1.145 2.8 1.13 2.622 2.976 7.412 2.894 7.507-1.178 1.363-5.412-.443-5.412-2.308 0-.263-.255-1.045-.567-1.739a206.49 206.49 0 0 1-1.351-3.1c-.994-2.334-1.119-2.36-11.306-2.36-9.399 0-11.161.593-11.178 3.761-.002.242-.252.917-.557 1.5-.304.584-.768 1.71-1.029 2.503-.635 1.924-1.617 2.312-4.784 1.886-.224-.03-.233-.489-.023-1.15.668-2.103 1.534-4.307 2.16-5.5.347-.66.631-1.41.633-1.668.001-.257.258-.977.57-1.6.313-.622.884-1.942 1.271-2.932.386-.99 1.005-2.52 1.374-3.4.369-.88 1.093-2.68 1.609-4 .516-1.32 1.082-2.571 1.258-2.78.176-.209.32-.639.32-.956 0-.317.379-1.406.843-2.42.97-2.12 1.563-3.511 2.577-6.044.397-.99 1.05-2.555 1.451-3.478s.729-1.885.729-2.138c0-2.273 4.122-3.6 5.467-1.761m43.133 1.06v1.717l-7.713.109-7.713.108-.387 1.018c-.588 1.546-.496 11.866.113 12.684.432.58 1.528.685 8.1.776l7.6.105v3.6l-7.57.109c-4.758.069-7.767.273-8.1.549-.41.341-.53 2.406-.53 9.146v8.705l-1.241.182c-.682.1-1.672.1-2.2-.001l-.959-.183v-20.124c0-18.478.055-20.135.668-20.254.367-.071 5.002-.091 10.3-.046l9.632.084v1.716m28.323-1.7c.601.014.702.304.6 1.717l-.123 1.7-7.658.108c-9.364.133-8.604-.51-8.611 7.286-.006 7.822-.711 7.206 8.238 7.206 7.936 0 8.231.08 8.231 2.237 0 1.732-.153 1.763-8.609 1.763-8.711 0-7.873-.727-8.098 7.025-.239 8.239-.745 7.775 8.474 7.775 3.832 0 7.252.109 7.6.243.865.332.895 3.352.033 3.369-.33.006-4.875.016-10.1.023l-9.5.011-.104-19.923c-.057-10.958-.035-20.103.049-20.323.123-.32 10.518-.436 19.578-.217m30.477 1.689v1.728l-4.576.114c-6.249.155-5.624-1.944-5.624 18.892 0 13.972-.11 17.945-.5 18.074-.275.091-1.13.155-1.9.143l-1.4-.023-.2-18.067c-.11-9.937-.349-18.217-.532-18.4-.182-.183-2.522-.423-5.2-.533l-4.868-.2-.128-1.338c-.227-2.363-.773-2.268 12.577-2.19l12.351.072v1.728m8.551-1.45c.191.208 1.065 1.728 1.942 3.378.878 1.65 2.186 4.08 2.907 5.4.721 1.32 2.024 3.75 2.896 5.4 2.286 4.33 3.418 5.129 4.335 3.061.21-.473.796-1.581 1.301-2.461.506-.88 1.703-3.04 2.661-4.8.959-1.76 2.432-4.46 3.275-6s1.644-3.115 1.779-3.5c.135-.385.54-.711.9-.724a71.306 71.306 0 0 0 2.131-.137c2.01-.154 2.409.165 1.72 1.373-.31.543-.731 1.348-.937 1.788-.205.44-1.43 2.6-2.722 4.8-1.292 2.2-2.572 4.45-2.845 5-.273.55-1.131 2.08-1.907 3.4-.776 1.32-1.681 2.94-2.011 3.6-.33.66-.999 1.83-1.488 2.6-.825 1.3-.902 1.997-1.088 9.784l-.2 8.384-1.482.051c-2.279.078-2.259.145-2.393-8.227-.136-8.467-.059-8.125-2.904-12.992-.771-1.32-1.683-2.94-2.027-3.6-1.281-2.463-2.866-5.253-3.937-6.93-.608-.952-1.221-2.032-1.361-2.4-.141-.369-1.02-1.964-1.954-3.545-1.432-2.424-1.592-2.898-1.02-3.021 1.246-.268 4.078-.065 4.429.318m51.486-.066c.02.024.906 1.304 1.969 2.844 1.063 1.54 2.567 3.7 3.343 4.8 1.754 2.489 4.455 6.412 5.251 7.63 2.383 3.643 5.008 7.361 5.9 8.355.275.307.5.723.5.924 0 .202.36.693.8 1.091.44.398.8.972.8 1.275 0 .302.27.654.6.78.33.127.6.466.6.754 0 .601 2.126 2.721 2.651 2.644.192-.029.439-7.094.549-15.7l.2-15.648 1.478-.09c2.643-.16 2.5-1.388 2.384 20.449-.058 10.952-.186 19.994-.285 20.092-1.051 1.052-4.977-.389-4.977-1.826 0-.291-.17-.53-.378-.53s-.613-.427-.9-.948c-.593-1.077-4.377-6.747-4.706-7.052-.55-.509-2.016-2.81-2.016-3.164 0-.218-.232-.54-.515-.716-.284-.176-1.587-1.94-2.897-3.92-1.31-1.98-2.564-3.812-2.785-4.072-.222-.26-1.033-1.39-1.803-2.511-6.42-9.351-6-10.008-6 9.38v15.298l-1.371.223c-3.298.535-3.029 2.344-3.029-20.335 0-18.832.045-20.136.7-20.301.553-.14 3.781.085 3.937.274M324.9 305.9c.272 2.167.516 2.1-7.644 2.1-9.218 0-8.456-.649-8.456 7.2 0 7.848-.759 7.2 8.437 7.2 8.195 0 7.973-.072 7.66 2.492l-.183 1.491-7.857.109-7.857.108-.11 6.747c-.14 8.597-.929 7.853 8.326 7.853 8.099 0 7.923-.052 7.655 2.244l-.159 1.356H304.4v-40.4h20.312l.188 1.5m-221.982 5.378c-.229.287-1.079 2.232-1.889 4.322s-1.733 4.367-2.051 5.06c-.318.694-.578 1.394-.578 1.557 0 .163-.64 1.914-1.421 3.891-2.19 5.538-2.493 5.255 5.867 5.492 10.166.289 9.674.784 6.746-6.8-.468-1.21-1.043-2.74-1.279-3.4-.236-.66-.564-1.38-.729-1.6-.166-.22-.485-1.03-.711-1.8-1.457-4.978-3.108-7.783-3.955-6.722m1.904 3.722c.516 1.32 1.082 2.571 1.258 2.78.176.209.326.659.334 1 .007.341.361 1.34.786 2.22.425.88.779 1.904.786 2.276.008.372.174.776.37.897.195.121.479.716.631 1.323.151.607.546 1.678.878 2.38 1.246 2.635 1.078 2.711-6.24 2.834-3.708.063-6.727-.052-6.939-.264-.348-.348 1.296-5.227 2.754-8.178.308-.623.56-1.346.56-1.606 0-.261.36-1.146.8-1.966.44-.821.801-1.719.802-1.995.002-.275.244-.963.539-1.528.294-.564.663-1.535.819-2.158.352-1.402.673-1.061 1.862 1.985m233.271 1.4c0 .77.082 1.085.183.7.1-.385.1-1.015 0-1.4-.101-.385-.183-.07-.183.7" fill="#9c9c9c"/><path d="M254.536 125.39c-.467.327-1.046 1.425-1.315 2.492-.264 1.049-.626 2.09-.804 2.313-.179.223-.456 1.035-.617 1.805-.161.77-.421 1.58-.579 1.8-.157.22-.776 1.93-1.375 3.8-.599 1.87-1.236 3.676-1.416 4.013-.181.337-.457 1.198-.614 1.914-.481 2.192-1.17 2.361-10.016 2.457-8.891.097-12.665.403-12.877 1.044-.104.314 13.617 11.277 16.824 13.44.251.169.067 1.349-.5 3.2-.493 1.613-1.069 3.652-1.279 4.532-.21.88-.548 1.96-.75 2.4-.202.44-.837 2.51-1.411 4.6-.574 2.09-1.215 4.113-1.425 4.495-1.671 3.039-.073 3.255 3.869.522a834.997 834.997 0 0 1 6.549-4.483c1.87-1.265 3.584-2.487 3.809-2.717 2.141-2.183 4.966-2.942 6.289-1.689.276.262 1.582 1.192 2.902 2.067 1.32.875 3.111 2.134 3.98 2.798.87.664 1.901 1.387 2.292 1.607.392.22 2.085 1.361 3.763 2.536 4.283 2.999 4.573 2.418 2.368-4.736-2.271-7.368-3.385-11.116-3.909-13.148-.424-1.644-.393-1.79.528-2.463a44.219 44.219 0 0 0 1.858-1.452c1.294-1.084 2.133-1.728 8.592-6.594 3.478-2.619 5.793-4.629 5.679-4.927-.259-.674-4.13-1.009-11.751-1.017-9.737-.01-10.239-.117-11.019-2.353-.354-1.015-.89-2.386-1.191-3.046-.301-.66-.728-1.83-.948-2.6-.626-2.191-4.027-12.044-4.366-12.65-.255-.456-.442-.449-1.14.04m1.256 2.71c.14.715.4 1.66.578 2.1 1.308 3.238 2.03 5.302 2.032 5.808.002.325.255 1.075.563 1.665.308.59.684 1.637.835 2.327.151.69.527 1.737.835 2.327.308.59.561 1.364.563 1.719.001.355.375 1.12.831 1.7l.829 1.054 8.071.047c6.7.039 14.563.464 12.8.692-.26.034-.71.293-1 .575-.291.283-1.249 1.048-2.129 1.7-1.858 1.377-2.445 1.83-3.114 2.4-.267.228-1.206.948-2.086 1.6-5.667 4.2-7.95 6.022-8.345 6.66-.294.473-.285.95.029 1.6.246.509.63 1.646.853 2.526.222.88.705 2.59 1.071 3.8.367 1.21.918 3.1 1.225 4.2.307 1.1.725 2.36.928 2.8.204.44.553 1.52.776 2.4.224.88.539 2.038.7 2.573l.295.974-1.566-.961c-.861-.528-1.746-1.107-1.966-1.285-.22-.179-1.39-1.034-2.6-1.901-1.21-.867-2.38-1.717-2.6-1.889-1.283-1.004-8.095-5.553-8.922-5.958-.531-.26-5.336 2.785-9.078 5.752-.22.175-1.66 1.164-3.2 2.199-1.54 1.034-3.25 2.24-3.8 2.679-2.158 1.724-2.195 1.396-.498-4.383.55-1.87 1.234-4.21 1.522-5.2.288-.99.697-2.34.909-3 2.39-7.427 2.531-6.758-2.159-10.215-1.306-.963-2.554-1.899-2.774-2.081-.22-.182-2.603-2.014-5.295-4.072-3.438-2.627-4.689-3.791-4.2-3.91.382-.093 5.013-.22 10.291-.282 9.969-.119 10.782-.245 11.204-1.74.14-.495.49-1.44.778-2.1a35.78 35.78 0 0 0 1.878-5.584c.212-.872.538-1.772.723-2 .186-.229.527-1.046.759-1.816 2.013-6.686 2.933-8.152 3.454-5.5" fill="#a4744c"/></g></svg>